<svg width="130" height="130" viewBox="0 0 130 130" fill="none" xmlns="http://www.w3.org/2000/svg">
<path d="M56.5335 0C52.1152 0 48.5335 3.58172 48.5335 8V40.5335C48.5335 44.9518 44.9518 48.5335 40.5335 48.5335H8.00001C3.58173 48.5335 0 52.1152 0 56.5335V72.8891C0 77.3074 3.58172 80.8891 8 80.8891H40.5335C44.9518 80.8891 48.5335 84.4709 48.5335 88.8891V121.423C48.5335 125.841 52.1152 129.423 56.5335 129.423H72.8891C77.3074 129.423 80.8891 125.841 80.8891 121.423V88.8891C80.8891 84.4709 84.4709 80.8891 88.8891 80.8891H121.423C125.841 80.8891 129.423 77.3074 129.423 72.8891V56.5335C129.423 52.1152 125.841 48.5335 121.423 48.5335H88.8891C84.4709 48.5335 80.8891 44.9518 80.8891 40.5335V8.00001C80.8891 3.58173 77.3074 0 72.8891 0H56.5335Z" fill="#1C1C1C"/>
</svg>
