<svg width="34" height="20" viewBox="0 0 34 20" fill="none" xmlns="http://www.w3.org/2000/svg">
<g clip-path="url(#clip0_179_226)">
<path d="M6.63116 19.067C5.41649 19.067 4.78213 18.5538 4.46018 18.1205C3.78488 17.2144 4.02972 16.1255 4.16128 15.6969C4.22925 15.4781 4.30636 15.197 4.39221 14.8667C4.93158 12.827 5.93797 9.02395 8.85223 7.23437C10.8145 6.02919 14.6899 5.60059 17.6633 5.60059C19.4671 5.60059 23.9136 5.77477 26.2479 7.39916C29.6745 9.77821 30.5398 16.0495 30.5764 16.3173C30.5811 16.3619 30.5855 16.4065 30.5855 16.4554C30.5855 18.0935 29.593 19.0713 27.9296 19.0713H6.63116V19.067Z" fill="white"/>
<path d="M6.62753 19.9999C4.9347 19.9999 4.05788 19.1681 3.68545 18.6722C3.02803 17.7919 2.86785 16.6047 3.24585 15.4156C3.29831 15.2571 3.36151 15.0206 3.43544 14.7439L3.46485 14.6335C4.04158 12.4635 5.11555 8.42443 8.3446 6.44111C10.4834 5.13063 14.561 4.66406 17.6645 4.66406C20.0183 4.66406 24.3344 4.91927 26.7972 6.62899C30.4881 9.19318 31.4261 15.4813 31.5211 16.1898C31.5338 16.2755 31.5378 16.3632 31.5378 16.4466C31.5378 18.6049 30.122 19.9995 27.9307 19.9995H6.62753V19.9999ZM17.6641 6.54249C14.0888 6.54249 10.826 7.12923 9.35218 8.03771C6.75472 9.63392 5.81231 13.199 5.30594 15.1146C5.21492 15.4602 5.13661 15.7561 5.06428 15.9839C4.87389 16.5922 4.93311 17.1868 5.22366 17.5735C5.50268 17.9457 5.97528 18.1344 6.62753 18.1344H27.9299C29.0607 18.1344 29.6343 17.5696 29.6343 16.456C29.6275 16.409 28.8334 10.344 25.7005 8.1661C24.2164 7.13471 21.2874 6.54249 17.6641 6.54249Z" fill="#4C2F1B"/>
<path d="M6.62655 19.8842C4.98579 19.8842 4.13839 19.0818 3.77947 18.6039C3.14511 17.7541 2.99089 16.6049 3.35736 15.451C3.40982 15.2924 3.47382 15.0537 3.54854 14.7742L3.57795 14.6638C4.15349 12.4985 5.21712 8.49896 8.40602 6.54029C10.5233 5.24313 14.5764 4.78125 17.6631 4.78125C20.0026 4.78125 24.2917 5.03372 26.7278 6.72504C30.3778 9.26105 31.3083 15.5026 31.4025 16.2064C31.4148 16.2882 31.418 16.3704 31.418 16.4483C31.418 18.5358 30.0483 19.8846 27.929 19.8846H6.62655V19.8842ZM17.6631 6.42678C14.0668 6.42678 10.7801 7.02056 9.28881 7.93962C6.65159 9.56049 5.70124 13.1549 5.19089 15.0862C5.10026 15.4291 5.02276 15.7234 4.95082 15.9496C4.7493 16.5939 4.81528 17.2265 5.12769 17.6433C5.43056 18.0469 5.93455 18.2516 6.62655 18.2516H27.929C29.1214 18.2516 29.7514 17.6308 29.7514 16.4565C29.716 16.1751 28.8976 10.2478 25.7675 8.07153C24.2643 7.02644 21.3103 6.42678 17.6631 6.42678Z" fill="#4C2F1B"/>
<path d="M14.1777 18.4741V9.60059L20.4097 9.66752V18.4737H14.1777V18.4741Z" fill="#4C2F1B"/>
<path d="M14.8217 10.2383L19.771 10.2873V17.8393H14.8217V10.2383ZM13.5391 8.96191V19.1071H21.054V9.04216L19.7849 9.02885L14.8356 8.97522L13.5391 8.96191Z" fill="#4C2F1B"/>
<path d="M1.43533 10.4684C3.75974 3.43189 9.971 1.67676 17.3139 1.67676C24.2537 1.67676 29.7463 3.43228 32.4734 10.4731C35.0279 17.0674 23.5204 10.1076 17.3139 10.1076C11.107 10.1076 -0.778976 17.168 1.43533 10.4684Z" fill="#FF6C4A"/>
<path d="M15.3392 1.96394C15.3392 1.96394 14.6548 6.07463 15.8786 9.88197C15.8786 9.88197 16.7034 9.55162 18.4892 9.85966C18.4892 9.85966 17.0432 5.41861 18.0814 1.89231C18.0766 1.888 16.6628 1.77645 15.3392 1.96394Z" fill="#FFAF9F"/>
<path d="M25.0042 2.93262C23.8742 7.92166 25.0042 11.6484 25.0042 11.6484L27.5158 12.3917C27.5158 12.3917 26.9887 7.6551 27.269 4.13897C27.269 4.13389 25.6548 3.13811 25.0042 2.93262Z" fill="#FFAF9F"/>
<path d="M25.4686 12.2518C25.2897 11.503 24.5238 7.82445 25.4451 3.09766C26.0421 3.38222 26.9909 3.99479 27.3272 4.21829C27.107 7.46082 27.4381 11.6197 27.5549 12.9219L25.4686 12.2518Z" fill="#FFAF9F"/>
<path d="M16.0068 10.1499C15.008 6.55506 15.3931 2.73519 15.5028 1.85058C15.9699 1.78913 16.4905 1.75781 17.0534 1.75781C17.3574 1.75781 17.6178 1.7676 17.8002 1.77699C17.02 5.07627 17.8698 8.89105 18.1909 10.124C17.7978 10.0665 17.423 10.0375 17.0736 10.0375C16.5768 10.0379 16.2226 10.0974 16.0068 10.1499Z" fill="#FFAF9F"/>
<path d="M3.77677 14.8227C2.00008 14.8227 1.07834 14.0766 0.617675 13.4511C-0.461457 11.9735 0.158994 10.1315 0.362499 9.52599C3.23899 0.987553 11.4046 0 17.2967 0C23.1145 0 30.2165 1.07171 33.5171 9.42813C33.7611 10.0446 34.5024 11.9176 33.4575 13.4179C33.029 14.0379 32.1589 14.7773 30.4502 14.7773C28.8055 14.7773 26.6055 14.0989 24.2759 13.3815C21.8712 12.6425 19.1453 11.8048 17.2971 11.8048C15.468 11.8048 12.7346 12.6343 10.3231 13.3662C7.86316 14.1158 5.54471 14.8227 3.77677 14.8227ZM17.2967 1.87412C8.7523 1.87412 4.08679 4.41522 2.1686 10.1131C1.82082 11.15 1.81923 11.8827 2.16383 12.352C2.45597 12.7505 2.98342 12.9439 3.77637 12.9439C5.23946 12.9439 7.43469 12.2785 9.75869 11.5743C12.4317 10.7644 15.1949 9.9268 17.2963 9.9268C19.4323 9.9268 22.306 10.811 24.8411 11.5907C27.0367 12.2663 29.1095 12.9039 30.4494 12.9039C31.1633 12.9039 31.6331 12.727 31.8867 12.3626C32.2054 11.9043 32.1581 11.1676 31.7428 10.1119C28.8782 2.85306 22.8327 1.87412 17.2967 1.87412Z" fill="#4C2F1B"/>
<path d="M3.77725 14.706C2.05024 14.706 1.15832 13.9862 0.713946 13.3826C-0.329413 11.9539 0.275934 10.1542 0.475067 9.56274C3.32771 1.09554 11.4421 0.116211 17.2972 0.116211C23.0776 0.116211 30.1327 1.1797 33.4075 9.47037C33.6455 10.072 34.3705 11.9015 33.3606 13.3521C32.9476 13.9498 32.1081 14.6614 30.4507 14.6614C28.8242 14.6614 26.6322 13.9858 24.3118 13.2707C21.8983 12.5289 19.1629 11.6889 17.2976 11.6889C15.4494 11.6889 12.7052 12.5223 10.2842 13.257C7.83741 14.0022 5.52691 14.706 3.77725 14.706ZM17.2972 1.75783C8.69395 1.75783 3.99347 4.32359 2.057 10.0763C1.69649 11.1515 1.70047 11.9179 2.06892 12.4201C2.38491 12.8511 2.94375 13.0601 3.77725 13.0601C5.25783 13.0601 7.4614 12.3923 9.79455 11.6854C12.4588 10.8779 15.2141 10.043 17.2976 10.043C19.4149 10.043 22.2795 10.9241 24.807 11.7015C27.011 12.3794 29.0925 13.0198 30.4507 13.0198C31.2067 13.0198 31.7083 12.826 31.9853 12.4279C32.3275 11.9355 32.2846 11.164 31.8541 10.0696C28.9629 2.74538 22.8733 1.75783 17.2972 1.75783Z" fill="#4C2F1B"/>
<path d="M6.5877 4.26032C6.5877 4.26032 5.40165 8.74796 8.58022 11.9568L10.6101 11.3705C10.6101 11.3705 8.10684 8.19879 8.60805 3.12012L6.5877 4.26032Z" fill="#FFAF9F"/>
<path d="M8.73447 12.0817C5.97642 8.93785 6.68034 4.68429 6.82621 3.9582L8.39741 2.99609C8.12037 7.53343 9.74523 10.6135 10.3414 11.5784L8.73447 12.0817Z" fill="#FFAF9F"/>
</g>
<defs>
<clipPath id="clip0_179_226">
<rect width="34" height="20" fill="white"/>
</clipPath>
</defs>
</svg>
