<svg width="30" height="26" viewBox="0 0 30 26" fill="none" xmlns="http://www.w3.org/2000/svg">
<g clip-path="url(#clip0_179_242)">
<path d="M22.6737 7.0364C19.9764 5.28135 18.5754 3.26625 17.9099 2.06414C17.6646 1.60896 16.4036 1.9828 15.6332 2.27531C15.2302 2.42156 14.775 2.42156 14.3721 2.27531C13.584 1.9828 12.3407 1.60896 12.0954 2.06414C11.4472 3.28267 10.0462 5.29777 7.33154 7.0364C1.42933 10.8554 -3.50981 24.1642 15.0026 24.1642C33.5147 24.1642 28.5759 10.8554 22.6737 7.0364Z" fill="#FCFBE2"/>
<path d="M2.16602 17.4531C2.16602 17.4531 2.37632 24.6196 15.0035 24.6196C27.631 24.6196 27.8413 17.4531 27.8413 17.4531C27.8413 17.4531 24.5138 22.6369 15.0035 22.6369C5.4939 22.6369 2.16602 17.4531 2.16602 17.4531Z" fill="#EDE6AB"/>
<path d="M7.3489 11.1958C7.27894 11.1958 7.20897 11.1794 7.1386 11.1633C6.82334 11.0495 6.68341 10.741 6.78836 10.4481C7.92674 7.66929 11.6222 5.91424 11.7798 5.84932C12.0777 5.71949 12.428 5.81686 12.5679 6.09296C12.7083 6.36905 12.6029 6.69401 12.3053 6.84027C12.2704 6.85668 8.87251 8.44906 7.90945 10.838C7.82179 11.066 7.59419 11.1958 7.3489 11.1958ZM11.6748 11.7972C11.6049 11.7972 11.5522 11.7808 11.4822 11.7648C11.167 11.6674 11.0093 11.3585 11.097 11.066C11.8851 8.87215 12.9186 7.751 12.9535 7.70212C13.1639 7.47453 13.5491 7.44207 13.7944 7.65325C14.0397 7.84838 14.0746 8.2058 13.847 8.43339C13.8293 8.44981 12.9186 9.45717 12.2181 11.4234C12.1477 11.651 11.9201 11.7972 11.6748 11.7972ZM22.6034 11.4883C22.3409 11.4883 22.1129 11.326 22.0256 11.082C21.1325 8.14088 18.2252 6.84064 18.1899 6.82422C17.8923 6.69439 17.7697 6.36942 17.9096 6.09296C18.0495 5.81649 18.4002 5.70307 18.6977 5.83291C18.8377 5.89783 22.1129 7.34432 23.164 10.7891C23.2516 11.0816 23.0763 11.3906 22.7611 11.4715C22.7088 11.4883 22.6561 11.4883 22.6034 11.4883ZM18.6282 11.7972C18.3656 11.7972 18.1376 11.6346 18.0499 11.4073C17.4194 9.40867 16.4387 8.35243 16.4214 8.33601C16.2111 8.10842 16.2288 7.76741 16.4736 7.55587C16.7189 7.36074 17.0865 7.37715 17.3145 7.60437C17.3671 7.65325 18.4878 8.85574 19.1883 11.0984C19.276 11.3909 19.1006 11.6995 18.7858 11.7808C18.7331 11.7808 18.6804 11.7972 18.6282 11.7972Z" fill="#4C2F1B"/>
<path d="M17.385 1.83638C17.6476 1.83638 17.8402 1.9013 17.9278 2.04756C18.576 3.26609 19.977 5.28156 22.6917 7.02019C28.5939 10.8392 33.5503 24.1479 15.0206 24.1479C-3.50918 24.1479 1.42997 10.8553 7.33217 7.03661C10.0291 5.28156 11.4301 3.26646 12.096 2.06434C12.1837 1.91809 12.3763 1.85317 12.6389 1.85317C13.1467 1.85317 13.8649 2.08076 14.3905 2.27552C14.6008 2.35685 14.8107 2.38931 15.021 2.38931C15.2313 2.38931 15.4412 2.35685 15.6515 2.27552C16.1417 2.06397 16.8771 1.83638 17.385 1.83638ZM17.385 0C16.7368 0 15.9663 0.16267 15.0029 0.520097C14.0398 0.16267 13.2694 0 12.6212 0C11.1325 0 10.5193 0.861108 10.309 1.23495C9.80114 2.16135 8.61009 3.9649 6.19339 5.52519C2.09546 8.19022 -1.21473 14.2676 0.431522 19.11C1.49993 22.2463 4.89738 26 15.0029 26C25.1084 26 28.5062 22.2463 29.5746 19.11C31.2036 14.2836 27.9107 8.18985 23.8127 5.52482C21.3957 3.96453 20.205 2.16098 19.6967 1.23458C19.4868 0.861108 18.8563 0 17.385 0Z" fill="#4C2F1B"/>
</g>
<defs>
<clipPath id="clip0_179_242">
<rect width="30" height="26" fill="white"/>
</clipPath>
</defs>
</svg>
