<svg width="21" height="27" viewBox="0 0 21 27" fill="none" xmlns="http://www.w3.org/2000/svg">
<g clip-path="url(#clip0_179_292)">
<path d="M8.13626 24.6991C8.06715 24.6991 7.99837 24.6991 7.92926 24.6838C7.70507 24.6223 7.49841 24.4999 7.36053 24.331C7.22264 24.1624 7.18826 23.9476 7.25703 23.7175L10.4291 12.1045L10.9118 12.1657C11.1704 12.1963 11.429 12.2422 11.6876 12.2884L12.2047 12.3958L9.01549 24.0856C8.91199 24.4381 8.54991 24.6991 8.13626 24.6991Z" fill="#FF5A5A"/>
<path d="M10.8258 12.6258C11.05 12.6411 11.3086 12.7023 11.5328 12.7332L8.46426 23.9475C8.42987 24.1008 8.27479 24.1929 8.10218 24.1929H8.01588C7.82607 24.1623 7.70538 23.9628 7.74011 23.8095L10.8258 12.6258ZM10.0154 11.5674L9.79119 12.3957L6.73985 23.5791C6.65355 23.9166 6.72266 24.2694 6.91246 24.5454C7.11912 24.837 7.42961 25.0515 7.80888 25.1283C7.91238 25.1436 8.03307 25.1589 8.13657 25.1589C8.8088 25.1589 9.39506 24.7446 9.53295 24.1773L12.6015 12.963L12.8601 12.027L11.8082 11.7969C11.5325 11.7357 11.2395 11.6895 10.9809 11.6742L10.0154 11.5674Z" fill="#4C2F1B"/>
<path d="M17.2556 26.2028H4.48122C4.29175 26.2028 4.11914 26.0492 4.11914 25.8806V6.19818C4.11914 6.02958 4.29141 5.87598 4.48122 5.87598H17.2556C17.4454 5.87598 17.6177 6.02958 17.6177 6.19818V25.8806C17.6177 26.0648 17.4626 26.2028 17.2556 26.2028Z" fill="white"/>
<path d="M4.1543 14.4975C4.1543 14.4975 7.99856 11.7054 11.981 12.8409C15.9632 13.9761 17.6357 12.5799 17.6357 12.5799V25.1748C17.6357 25.7577 17.1185 26.2026 16.4807 26.2026H5.3093C4.65426 26.2026 4.1543 25.7424 4.1543 25.1748V14.4975Z" fill="#FFFDAB"/>
<path d="M8.13626 24.6994C8.06715 24.6994 7.99837 24.6994 7.92926 24.6841C7.70507 24.6226 7.49841 24.5002 7.36053 24.3313C7.22264 24.1627 7.18826 23.9479 7.25703 23.7178L12.9808 2.80781C13.0671 2.54681 13.2737 2.33231 13.5667 2.22491L19.2905 0.522111C19.394 0.491211 19.4799 0.491211 19.5834 0.491211C19.9799 0.491211 20.3076 0.721311 20.4455 1.02821C20.5318 1.22771 20.5146 1.45781 20.4111 1.64201C20.3076 1.82591 20.1181 1.97951 19.8939 2.05631L14.6357 3.60581L9.01582 24.0859C8.91199 24.4384 8.54991 24.6994 8.13626 24.6994Z" fill="#FF5A5A"/>
<path d="M19.5492 0.9666C19.6871 0.9666 19.8421 1.0587 19.8769 1.1967C19.9456 1.3653 19.8425 1.5495 19.6527 1.611L14.1187 3.2679L8.46408 23.9778C8.4297 24.1314 8.27462 24.2232 8.10201 24.2232H8.0157C7.8259 24.1926 7.70521 23.9931 7.73993 23.8398L13.4981 2.9148C13.5153 2.8074 13.6188 2.7309 13.7223 2.6847L19.4457 0.9819C19.4629 0.9666 19.5148 0.9666 19.5492 0.9666ZM19.5492 0C19.4113 0 19.2387 0.0153 19.0836 0.0768L13.3602 1.7796C12.8774 1.9329 12.5325 2.2551 12.429 2.6847L6.72282 23.5791C6.53336 24.2694 7.01612 24.975 7.79185 25.1439C7.89535 25.1592 8.01604 25.1745 8.1192 25.1745C8.79143 25.1745 9.3777 24.7602 9.51558 24.1926L15.0495 3.9885L20.0144 2.5005C20.3937 2.3931 20.6866 2.163 20.8417 1.8561C21.014 1.5339 21.0484 1.2117 20.928 0.8742C20.7214 0.3528 20.187 0 19.5492 0Z" fill="#4C2F1B"/>
<path d="M17.0142 26.9997H4.74011C3.91247 26.9997 3.24023 26.4015 3.24023 25.665V6.42747C3.24023 5.69127 3.9128 5.09277 4.74011 5.09277H17.0146C17.8422 5.09277 18.5145 5.69097 18.5145 6.42747V25.665C18.5141 26.4015 17.8419 26.9997 17.0142 26.9997ZM5.05027 25.4043H16.7213V6.70377H5.05027V25.4043Z" fill="#4C2F1B"/>
<path d="M15.568 24.116L14.4477 24.4841C14.3443 24.5147 14.1892 24.4688 14.1544 24.3767L13.7408 23.3795C13.7064 23.2874 13.758 23.1494 13.8615 23.1188L14.9818 22.7507C15.0853 22.7198 15.2403 22.766 15.2751 22.8581L15.6887 23.8553C15.7406 23.978 15.6715 24.0854 15.568 24.116ZM10.6895 24.0242L10.7238 23.1959C10.7238 23.1191 10.8101 23.0732 10.8961 23.0732L11.8269 23.1038C11.9132 23.1038 11.9648 23.1806 11.9648 23.2571L11.9301 24.0854C11.9301 24.1622 11.8441 24.2081 11.7578 24.2081L10.827 24.1775C10.741 24.1775 10.6895 24.1007 10.6895 24.0242ZM12.6202 22.6742L11.8445 22.214C11.8101 22.1834 11.7757 22.1219 11.8273 22.0913L12.3444 21.401C12.3788 21.3704 12.4479 21.3398 12.4823 21.3857L13.258 21.8459C13.2924 21.8765 13.3271 21.938 13.2752 21.9686L12.7581 22.6589C12.7237 22.6895 12.6718 22.7048 12.6202 22.6742Z" fill="#FFEE88"/>
<path d="M14.9476 19.2371H14.482C14.3098 19.2371 14.1719 19.1144 14.1719 18.9611V14.9264C14.1719 14.7731 14.3098 14.6504 14.482 14.6504H14.9476C15.1199 14.6504 15.2578 14.7731 15.2578 14.9264V18.9611C15.2578 19.1144 15.1023 19.2371 14.9476 19.2371Z" fill="white"/>
<path d="M8.13626 24.6991C8.06715 24.6991 7.99837 24.6991 7.92926 24.6838C7.70507 24.6223 7.49841 24.4999 7.36053 24.331C7.22264 24.1624 7.18826 23.9476 7.25703 23.7175L10.4291 12.1045L10.9118 12.1657C11.1704 12.1963 11.429 12.2422 11.6876 12.2884L12.2047 12.3958L9.01549 24.0856C8.91199 24.4381 8.54991 24.6991 8.13626 24.6991Z" fill="#FFB69C"/>
<path d="M10.8258 12.6258C11.05 12.6411 11.3086 12.7023 11.5328 12.7332L8.46426 23.9475C8.42987 24.1008 8.27479 24.1929 8.10218 24.1929H8.01588C7.82607 24.1623 7.70538 23.9628 7.74011 23.8095L10.8258 12.6258ZM10.0154 11.5674L9.79119 12.3957L6.73985 23.5791C6.65355 23.9166 6.72266 24.2694 6.91246 24.5454C7.11912 24.837 7.42961 25.0515 7.80888 25.1283C7.91238 25.1436 8.03307 25.1589 8.13657 25.1589C8.8088 25.1589 9.39506 24.7446 9.53295 24.1773L12.6015 12.963L12.8601 12.027L11.8082 11.7969C11.5325 11.7357 11.2395 11.6895 10.9809 11.6742L10.0154 11.5674Z" fill="#4C2F1B"/>
<path d="M14.1699 20.5419C14.1699 20.8047 14.4093 21.0174 14.7046 21.0174C14.9996 21.0174 15.239 20.8047 15.239 20.5419C15.239 20.2794 14.9996 20.0664 14.7046 20.0664C14.4093 20.0664 14.1699 20.2791 14.1699 20.5419Z" fill="white"/>
<path d="M16.4627 27H5.30885C4.18824 27 3.24023 26.187 3.24023 25.1592V14.4972C3.24023 14.2518 3.36093 14.037 3.56792 13.8681C3.74019 13.7454 7.84303 10.8153 12.222 12.0732C15.5663 13.0242 16.9455 12.012 16.9974 11.9658C17.2732 11.7357 17.6524 11.7048 17.9629 11.8125C18.2903 11.9352 18.4973 12.2421 18.4973 12.549V25.1439C18.5141 26.187 17.6005 27 16.4627 27ZM5.05027 14.9115V25.1592C5.05027 25.2819 5.15377 25.3893 5.30885 25.3893H16.4802C16.6181 25.3893 16.7388 25.2819 16.7388 25.1592V13.8681C15.6701 14.1444 14.032 14.2824 11.7048 13.6074C8.87734 12.8097 6.01547 14.3283 5.05027 14.9115Z" fill="#4C2F1B"/>
<path d="M1.60421 7.88456C3.01104 9.13676 5.29272 9.13676 6.69955 7.88456C8.10672 6.63236 8.10672 4.60226 6.69955 3.35006C5.29272 2.09816 3.01104 2.09816 1.60421 3.35006C0.197036 4.60226 0.197036 6.63236 1.60421 7.88456Z" fill="#FFFA94"/>
<path d="M4.25917 4.58707H4.03498C3.94867 4.58707 3.89709 4.52587 3.89709 4.46437V3.77407C3.89709 3.69727 3.96587 3.65137 4.03498 3.65137H4.25917C4.34547 3.65137 4.39705 3.71287 4.39705 3.77407V4.46437C4.39705 4.52557 4.34514 4.58707 4.25917 4.58707ZM2.98314 5.52277V5.72227C2.98314 5.79907 2.91437 5.84497 2.84526 5.84497H2.06953C1.98322 5.84497 1.93164 5.78347 1.93164 5.72227V5.52277C1.93164 5.44597 2.00075 5.40007 2.06953 5.40007H2.84526C2.93156 5.38477 2.98314 5.44597 2.98314 5.52277ZM4.03498 6.64267H4.25917C4.34547 6.64267 4.39705 6.70417 4.39705 6.76537V7.45567C4.39705 7.53247 4.32794 7.57837 4.25917 7.57837H4.03498C3.94867 7.57837 3.89709 7.51687 3.89709 7.45567V6.76537C3.8799 6.70417 3.94867 6.64267 4.03498 6.64267ZM5.31067 5.72227V5.52277C5.31067 5.44597 5.37978 5.40007 5.44855 5.40007H6.22428C6.31059 5.40007 6.36217 5.46127 6.36217 5.52277V5.72227C6.36217 5.79907 6.29339 5.84497 6.22428 5.84497H5.44855C5.36259 5.87557 5.31067 5.79877 5.31067 5.72227Z" fill="#242424"/>
<path d="M4.15476 9.29704C3.05134 9.29704 1.99984 8.91334 1.20658 8.22304C0.413655 7.51744 0 6.58174 0 5.59984C0 4.61794 0.430849 3.68224 1.20692 2.97634C1.99984 2.27074 3.05168 1.90234 4.15509 1.90234C5.25851 1.90234 6.31001 2.28604 7.10294 2.97634C7.8962 3.68224 8.30985 4.61794 8.30985 5.59984C8.30985 6.58174 7.879 7.51744 7.10294 8.22334C6.30968 8.92864 5.25818 9.29704 4.15476 9.29704ZM4.15476 2.89984C3.3615 2.89984 2.5861 3.16084 1.98265 3.69754C0.792924 4.75594 0.792924 6.50494 1.98265 7.56334C3.17203 8.62174 5.13748 8.62174 6.32687 7.56334C7.51625 6.50494 7.51625 4.75594 6.32687 3.69754C5.72341 3.16054 4.93049 2.89984 4.15476 2.89984Z" fill="#4C2F1B"/>
</g>
<defs>
<clipPath id="clip0_179_292">
<rect width="21" height="27" fill="white"/>
</clipPath>
</defs>
</svg>
