<svg width="42" height="20" viewBox="0 0 42 20" fill="none" xmlns="http://www.w3.org/2000/svg">
<path d="M41.3491 15.5406L36.4719 9.56354L41.2535 3.70605C41.515 3.38561 41.6798 2.99726 41.7285 2.58652C41.7772 2.17578 41.7078 1.75967 41.5284 1.38696C41.3467 0.96921 41.0454 0.614601 40.6625 0.367829C40.2796 0.121057 39.8322 -0.00683086 39.3767 0.000286048H2.31909C2.01924 -0.0044606 1.7214 0.0499083 1.44256 0.160287C1.16373 0.270665 0.909374 0.434892 0.694019 0.643586C0.478664 0.85228 0.306531 1.10135 0.18745 1.37658C0.0683685 1.65181 0.00467267 1.9478 0 2.24765L0 16.8914C0.0125646 17.4949 0.263589 18.0688 0.698177 18.4877C1.13277 18.9066 1.71555 19.1364 2.31909 19.1268H39.5082C39.9485 19.1342 40.3816 19.0154 40.7565 18.7845C41.1315 18.5536 41.4325 18.2203 41.6241 17.8238C41.7961 17.4555 41.8615 17.0464 41.8129 16.6429C41.7643 16.2393 41.6037 15.8575 41.3491 15.5406ZM2.39081 16.736V2.3911H39.1854L33.3997 9.47986L39.2691 16.736H2.39081Z" fill="#FDE5D4"/>
<path d="M11.2264 11.1771L7.32933 5.97705H5.97852V13.3647H7.32933V8.1766L11.2264 13.3647H12.5652V5.97705H11.2264V11.1771Z" fill="#FDE5D4"/>
<path d="M14.5605 13.3647H20.1311V12.1454H15.9114V10.2207H19.7247V8.98948H15.9114V7.20832H20.1311V5.97705H14.5605V13.3647Z" fill="#FDE5D4"/>
<path d="M29.312 11.2727L27.5667 5.97705H26.1083L24.351 11.2727L22.7731 5.97705H21.3027L23.6457 13.3647H24.9726L26.8375 7.87775L28.6904 13.3647H30.0412L32.3722 5.97705H30.9019L29.312 11.2727Z" fill="#FDE5D4"/>
</svg>
