<svg width="250" height="250" viewBox="0 0 250 250" fill="none" xmlns="http://www.w3.org/2000/svg">
<circle cx="125" cy="125" r="117.5" stroke="url(#paint0_linear_813_1236)" stroke-width="15"/>
<path d="M52.3481 105V99.225L46.6981 86.55H49.8981L53.9481 96.075L57.9981 86.55H61.1231L55.4481 99.225V105H52.3481ZM67.1159 105.125C66.0659 105.125 65.1576 105.017 64.3909 104.8C63.6243 104.583 62.9993 104.217 62.5159 103.7C62.0326 103.183 61.6743 102.483 61.4409 101.6C61.2076 100.717 61.0909 99.6083 61.0909 98.275C61.0909 96.8917 61.2076 95.7583 61.4409 94.875C61.6743 93.975 62.0326 93.275 62.5159 92.775C63.0159 92.2583 63.6493 91.9083 64.4159 91.725C65.1826 91.525 66.0826 91.425 67.1159 91.425C68.1826 91.425 69.0993 91.5333 69.8659 91.75C70.6326 91.95 71.2576 92.3 71.7409 92.8C72.2243 93.3 72.5826 94 72.8159 94.9C73.0493 95.7833 73.1659 96.9083 73.1659 98.275C73.1659 99.625 73.0493 100.75 72.8159 101.65C72.5993 102.533 72.2493 103.233 71.7659 103.75C71.2826 104.25 70.6576 104.608 69.8909 104.825C69.1243 105.025 68.1993 105.125 67.1159 105.125ZM67.1159 102.65C67.6326 102.65 68.0743 102.608 68.4409 102.525C68.8076 102.425 69.1076 102.233 69.3409 101.95C69.5909 101.65 69.7743 101.208 69.8909 100.625C70.0076 100.025 70.0659 99.2333 70.0659 98.25C70.0659 97.2833 70.0076 96.5083 69.8909 95.925C69.7743 95.3417 69.5909 94.9083 69.3409 94.625C69.1076 94.325 68.8076 94.1333 68.4409 94.05C68.0743 93.95 67.6326 93.9 67.1159 93.9C66.6159 93.9 66.1826 93.95 65.8159 94.05C65.4493 94.1333 65.1493 94.325 64.9159 94.625C64.6826 94.9083 64.4993 95.3417 64.3659 95.925C64.2493 96.5083 64.1909 97.2833 64.1909 98.25C64.1909 99.2333 64.2493 100.025 64.3659 100.625C64.4993 101.208 64.6826 101.65 64.9159 101.95C65.1493 102.233 65.4493 102.425 65.8159 102.525C66.1826 102.608 66.6159 102.65 67.1159 102.65ZM79.7952 105.15C78.5619 105.15 77.6035 104.808 76.9202 104.125C76.2369 103.425 75.8952 102.408 75.8952 101.075V91.6H78.9952V100.175C78.9952 101.058 79.1952 101.65 79.5952 101.95C80.0119 102.25 80.5702 102.4 81.2702 102.4C81.8535 102.4 82.4202 102.308 82.9702 102.125C83.5202 101.942 84.0369 101.675 84.5202 101.325V91.6H87.6202V105H85.0952L84.5202 103.6C83.8869 104 83.1619 104.358 82.3452 104.675C81.5452 104.992 80.6952 105.15 79.7952 105.15ZM90.7396 105V91.6H93.1396L93.8396 93.75C94.3729 93.1 94.9646 92.55 95.6146 92.1C96.2646 91.65 97.0396 91.425 97.9396 91.425C98.1229 91.425 98.3146 91.4417 98.5146 91.475C98.7146 91.4917 98.8979 91.525 99.0646 91.575V94.725C98.8312 94.6917 98.5812 94.6667 98.3146 94.65C98.0479 94.6333 97.7896 94.625 97.5396 94.625C97.0229 94.625 96.5479 94.6833 96.1146 94.8C95.6979 94.9167 95.3062 95.1 94.9396 95.35C94.5729 95.5833 94.2062 95.8833 93.8396 96.25V105H90.7396ZM113.356 105.125C112.306 105.125 111.398 105.017 110.631 104.8C109.864 104.583 109.239 104.217 108.756 103.7C108.273 103.183 107.914 102.483 107.681 101.6C107.448 100.717 107.331 99.6083 107.331 98.275C107.331 96.8917 107.448 95.7583 107.681 94.875C107.914 93.975 108.273 93.275 108.756 92.775C109.256 92.2583 109.889 91.9083 110.656 91.725C111.423 91.525 112.323 91.425 113.356 91.425C114.423 91.425 115.339 91.5333 116.106 91.75C116.873 91.95 117.498 92.3 117.981 92.8C118.464 93.3 118.823 94 119.056 94.9C119.289 95.7833 119.406 96.9083 119.406 98.275C119.406 99.625 119.289 100.75 119.056 101.65C118.839 102.533 118.489 103.233 118.006 103.75C117.523 104.25 116.898 104.608 116.131 104.825C115.364 105.025 114.439 105.125 113.356 105.125ZM113.356 102.65C113.873 102.65 114.314 102.608 114.681 102.525C115.048 102.425 115.348 102.233 115.581 101.95C115.831 101.65 116.014 101.208 116.131 100.625C116.248 100.025 116.306 99.2333 116.306 98.25C116.306 97.2833 116.248 96.5083 116.131 95.925C116.014 95.3417 115.831 94.9083 115.581 94.625C115.348 94.325 115.048 94.1333 114.681 94.05C114.314 93.95 113.873 93.9 113.356 93.9C112.856 93.9 112.423 93.95 112.056 94.05C111.689 94.1333 111.389 94.325 111.156 94.625C110.923 94.9083 110.739 95.3417 110.606 95.925C110.489 96.5083 110.431 97.2833 110.431 98.25C110.431 99.2333 110.489 100.025 110.606 100.625C110.739 101.208 110.923 101.65 111.156 101.95C111.389 102.233 111.689 102.425 112.056 102.525C112.423 102.608 112.856 102.65 113.356 102.65ZM122.16 105V91.6H124.56L125.26 93.75C125.794 93.1 126.385 92.55 127.035 92.1C127.685 91.65 128.46 91.425 129.36 91.425C129.544 91.425 129.735 91.4417 129.935 91.475C130.135 91.4917 130.319 91.525 130.485 91.575V94.725C130.252 94.6917 130.002 94.6667 129.735 94.65C129.469 94.6333 129.21 94.625 128.96 94.625C128.444 94.625 127.969 94.6833 127.535 94.8C127.119 94.9167 126.727 95.1 126.36 95.35C125.994 95.5833 125.627 95.8833 125.26 96.25V105H122.16ZM137.009 105.15C135.959 105.15 135.076 104.925 134.359 104.475C133.642 104.008 133.101 103.283 132.734 102.3C132.384 101.3 132.209 100.008 132.209 98.425C132.209 96.7583 132.367 95.4167 132.684 94.4C133.001 93.3667 133.526 92.6167 134.259 92.15C135.009 91.6667 136.009 91.425 137.259 91.425C137.926 91.425 138.584 91.4917 139.234 91.625C139.884 91.7583 140.451 91.9167 140.934 92.1V85.925H144.034V105H141.459L140.934 103.7C140.667 103.95 140.309 104.183 139.859 104.4C139.426 104.617 138.959 104.8 138.459 104.95C137.976 105.083 137.492 105.15 137.009 105.15ZM138.059 102.65C138.659 102.65 139.201 102.558 139.684 102.375C140.167 102.175 140.584 101.975 140.934 101.775V94.325C140.517 94.175 140.092 94.0417 139.659 93.925C139.226 93.8083 138.751 93.75 138.234 93.75C137.534 93.75 136.967 93.8833 136.534 94.15C136.101 94.4 135.784 94.85 135.584 95.5C135.401 96.15 135.309 97.075 135.309 98.275C135.309 99.3917 135.401 100.275 135.584 100.925C135.767 101.558 136.059 102.008 136.459 102.275C136.876 102.525 137.409 102.65 138.059 102.65ZM152.611 105.125C151.161 105.125 150.003 104.925 149.136 104.525C148.286 104.125 147.669 103.433 147.286 102.45C146.903 101.45 146.711 100.067 146.711 98.3C146.711 96.5 146.894 95.1083 147.261 94.125C147.628 93.125 148.236 92.425 149.086 92.025C149.936 91.625 151.086 91.425 152.536 91.425C153.819 91.425 154.844 91.5583 155.611 91.825C156.394 92.075 156.961 92.5333 157.311 93.2C157.678 93.85 157.861 94.775 157.861 95.975C157.861 96.825 157.694 97.5083 157.361 98.025C157.028 98.525 156.544 98.8833 155.911 99.1C155.294 99.3167 154.561 99.425 153.711 99.425H149.786C149.819 100.258 149.928 100.925 150.111 101.425C150.311 101.908 150.661 102.258 151.161 102.475C151.678 102.692 152.428 102.8 153.411 102.8H157.461V104.625C156.778 104.758 156.053 104.875 155.286 104.975C154.536 105.075 153.644 105.125 152.611 105.125ZM149.761 97.55H153.411C153.994 97.55 154.419 97.4417 154.686 97.225C154.969 96.9917 155.111 96.575 155.111 95.975C155.111 95.3917 155.028 94.9333 154.861 94.6C154.694 94.2667 154.419 94.0333 154.036 93.9C153.653 93.75 153.153 93.675 152.536 93.675C151.836 93.675 151.286 93.7833 150.886 94C150.486 94.2167 150.194 94.6083 150.011 95.175C149.844 95.725 149.761 96.5167 149.761 97.55ZM160.613 105V91.6H163.013L163.713 93.75C164.246 93.1 164.838 92.55 165.488 92.1C166.138 91.65 166.913 91.425 167.813 91.425C167.996 91.425 168.188 91.4417 168.388 91.475C168.588 91.4917 168.771 91.525 168.938 91.575V94.725C168.704 94.6917 168.454 94.6667 168.188 94.65C167.921 94.6333 167.663 94.625 167.413 94.625C166.896 94.625 166.421 94.6833 165.988 94.8C165.571 94.9167 165.179 95.1 164.813 95.35C164.446 95.5833 164.079 95.8833 163.713 96.25V105H160.613ZM178.029 89.475C177.713 89.475 177.554 89.325 177.554 89.025V86.75C177.554 86.4167 177.713 86.25 178.029 86.25H180.379C180.529 86.25 180.638 86.3 180.704 86.4C180.788 86.5 180.829 86.6167 180.829 86.75V89.025C180.829 89.325 180.679 89.475 180.379 89.475H178.029ZM177.629 105V91.6H180.729V105H177.629ZM188.704 105.15C188.32 105.15 187.879 105.133 187.379 105.1C186.895 105.083 186.404 105.05 185.904 105C185.42 104.967 184.97 104.917 184.554 104.85C184.137 104.783 183.795 104.708 183.529 104.625V102.8H189.304C189.72 102.8 190.07 102.767 190.354 102.7C190.654 102.633 190.879 102.5 191.029 102.3C191.179 102.1 191.254 101.8 191.254 101.4V100.925C191.254 100.508 191.112 100.183 190.829 99.95C190.562 99.7 190.087 99.575 189.404 99.575H187.379C186.595 99.575 185.895 99.4667 185.279 99.25C184.679 99.0333 184.204 98.6667 183.854 98.15C183.504 97.6333 183.329 96.9333 183.329 96.05V95.3C183.329 94.45 183.487 93.75 183.804 93.2C184.137 92.6333 184.679 92.2083 185.429 91.925C186.195 91.625 187.212 91.475 188.479 91.475C189.012 91.475 189.587 91.5 190.204 91.55C190.82 91.6 191.412 91.6667 191.979 91.75C192.545 91.8167 192.995 91.9 193.329 92V93.825H187.879C187.262 93.825 186.787 93.9333 186.454 94.15C186.137 94.35 185.979 94.7333 185.979 95.3V95.775C185.979 96.1417 186.054 96.4167 186.204 96.6C186.354 96.7833 186.579 96.9083 186.879 96.975C187.179 97.0417 187.537 97.075 187.954 97.075H190.029C191.345 97.075 192.32 97.375 192.954 97.975C193.587 98.575 193.904 99.425 193.904 100.525V101.625C193.904 102.525 193.695 103.233 193.279 103.75C192.862 104.267 192.262 104.633 191.479 104.85C190.712 105.05 189.787 105.15 188.704 105.15ZM41.5553 138.15C40.9553 138.15 40.4053 138.083 39.9053 137.95C39.4219 137.8 38.9803 137.617 38.5803 137.4C38.1803 137.167 37.8053 136.933 37.4553 136.7L36.9303 138H34.3553V118.925H37.4553V125.625C38.0219 125.308 38.6636 125.033 39.3803 124.8C40.1136 124.55 40.7886 124.425 41.4053 124.425C42.5386 124.425 43.4553 124.658 44.1553 125.125C44.8553 125.592 45.3636 126.342 45.6803 127.375C46.0136 128.392 46.1803 129.742 46.1803 131.425C46.1803 132.892 46.0136 134.125 45.6803 135.125C45.3636 136.125 44.8636 136.883 44.1803 137.4C43.5136 137.9 42.6386 138.15 41.5553 138.15ZM40.4303 135.625C40.9803 135.625 41.4469 135.483 41.8303 135.2C42.2303 134.917 42.5386 134.458 42.7553 133.825C42.9719 133.192 43.0803 132.342 43.0803 131.275C43.0803 130.008 42.9636 129.067 42.7303 128.45C42.4969 127.833 42.1803 127.425 41.7803 127.225C41.3803 127.025 40.9303 126.925 40.4303 126.925C39.8469 126.925 39.3136 127.017 38.8303 127.2C38.3469 127.367 37.8886 127.567 37.4553 127.8V134.8C37.8386 135 38.2719 135.192 38.7553 135.375C39.2553 135.542 39.8136 135.625 40.4303 135.625ZM54.4055 138.125C52.9555 138.125 51.7971 137.925 50.9305 137.525C50.0805 137.125 49.4638 136.433 49.0805 135.45C48.6971 134.45 48.5055 133.067 48.5055 131.3C48.5055 129.5 48.6888 128.108 49.0555 127.125C49.4221 126.125 50.0305 125.425 50.8805 125.025C51.7305 124.625 52.8805 124.425 54.3305 124.425C55.6138 124.425 56.6388 124.558 57.4055 124.825C58.1888 125.075 58.7555 125.533 59.1055 126.2C59.4721 126.85 59.6555 127.775 59.6555 128.975C59.6555 129.825 59.4888 130.508 59.1555 131.025C58.8221 131.525 58.3388 131.883 57.7055 132.1C57.0888 132.317 56.3555 132.425 55.5055 132.425H51.5805C51.6138 133.258 51.7221 133.925 51.9055 134.425C52.1055 134.908 52.4555 135.258 52.9555 135.475C53.4721 135.692 54.2221 135.8 55.2055 135.8H59.2555V137.625C58.5721 137.758 57.8471 137.875 57.0805 137.975C56.3305 138.075 55.4388 138.125 54.4055 138.125ZM51.5555 130.55H55.2055C55.7888 130.55 56.2138 130.442 56.4805 130.225C56.7638 129.992 56.9055 129.575 56.9055 128.975C56.9055 128.392 56.8221 127.933 56.6555 127.6C56.4888 127.267 56.2138 127.033 55.8305 126.9C55.4471 126.75 54.9471 126.675 54.3305 126.675C53.6305 126.675 53.0805 126.783 52.6805 127C52.2805 127.217 51.9888 127.608 51.8055 128.175C51.6388 128.725 51.5555 129.517 51.5555 130.55ZM62.807 122.475C62.4904 122.475 62.332 122.325 62.332 122.025V119.75C62.332 119.417 62.4904 119.25 62.807 119.25H65.157C65.307 119.25 65.4154 119.3 65.482 119.4C65.5654 119.5 65.607 119.617 65.607 119.75V122.025C65.607 122.325 65.457 122.475 65.157 122.475H62.807ZM62.407 138V124.6H65.507V138H62.407ZM68.6814 138V124.6H71.2064L71.7814 126C72.3314 125.583 72.9981 125.208 73.7814 124.875C74.5814 124.542 75.4064 124.375 76.2564 124.375C77.3064 124.375 78.1314 124.592 78.7314 125.025C79.3314 125.442 79.7564 126.008 80.0064 126.725C80.2731 127.442 80.4064 128.225 80.4064 129.075V138H77.3064V129.45C77.3064 128.967 77.2148 128.558 77.0314 128.225C76.8481 127.892 76.5898 127.633 76.2564 127.45C75.9398 127.267 75.5481 127.175 75.0814 127.175C74.6481 127.175 74.2398 127.217 73.8564 127.3C73.4898 127.383 73.1398 127.508 72.8064 127.675C72.4731 127.842 72.1314 128.042 71.7814 128.275V138H68.6814ZM86.9258 144.175C86.0758 144.175 85.3174 144.05 84.6508 143.8C83.9841 143.567 83.4591 143.2 83.0758 142.7C82.7091 142.217 82.5258 141.625 82.5258 140.925V140.45C82.5258 139.717 82.7341 139.092 83.1508 138.575C83.5674 138.075 84.1008 137.692 84.7508 137.425C85.4008 137.158 86.0758 137.025 86.7758 137.025L87.6758 138.05C87.2591 138.05 86.8841 138.117 86.5508 138.25C86.2174 138.383 85.9508 138.583 85.7508 138.85C85.5508 139.117 85.4508 139.45 85.4508 139.85V140.25C85.4508 140.85 85.6508 141.283 86.0508 141.55C86.4508 141.833 87.0174 141.975 87.7508 141.975H90.4758C91.2424 141.975 91.8424 141.825 92.2758 141.525C92.7258 141.242 92.9508 140.8 92.9508 140.2V139.775C92.9508 139.408 92.8758 139.1 92.7258 138.85C92.5758 138.6 92.3341 138.4 92.0008 138.25C91.6674 138.117 91.2174 138.05 90.6508 138.05H87.3008C85.9674 138.05 84.9591 137.792 84.2758 137.275C83.6091 136.758 83.2758 136.108 83.2758 135.325C83.2758 134.658 83.4674 134.108 83.8508 133.675C84.2508 133.242 84.8008 132.95 85.5008 132.8C84.9341 132.533 84.4841 132.192 84.1508 131.775C83.8341 131.358 83.6091 130.908 83.4758 130.425C83.3424 129.942 83.2758 129.45 83.2758 128.95C83.2758 127.933 83.4841 127.108 83.9008 126.475C84.3174 125.825 84.9258 125.35 85.7258 125.05C86.5258 124.733 87.5174 124.575 88.7008 124.575H95.9258V126.3L93.5508 126.625C93.7174 126.792 93.8924 126.992 94.0758 127.225C94.2758 127.458 94.4424 127.767 94.5758 128.15C94.7091 128.533 94.7758 129.033 94.7758 129.65C94.7758 130.4 94.6174 131.083 94.3008 131.7C94.0008 132.317 93.5008 132.808 92.8008 133.175C92.1008 133.542 91.1591 133.725 89.9758 133.725H87.7008C87.1674 133.725 86.7341 133.808 86.4008 133.975C86.0674 134.142 85.9008 134.425 85.9008 134.825C85.9008 135.158 86.0341 135.392 86.3008 135.525C86.5674 135.658 86.8508 135.725 87.1508 135.725H91.1258C92.1424 135.725 93.0008 135.858 93.7008 136.125C94.4174 136.392 94.9591 136.808 95.3258 137.375C95.6924 137.942 95.8758 138.692 95.8758 139.625V140.05C95.8758 141.333 95.4591 142.342 94.6258 143.075C93.8091 143.808 92.5508 144.175 90.8508 144.175H86.9258ZM88.2008 131.4H89.6508C90.2674 131.4 90.7424 131.308 91.0758 131.125C91.4258 130.925 91.6591 130.667 91.7758 130.35C91.9091 130.017 91.9758 129.65 91.9758 129.25C91.9758 128.683 91.8841 128.233 91.7008 127.9C91.5341 127.55 91.2841 127.3 90.9508 127.15C90.6341 127 90.2424 126.925 89.7758 126.925H88.3758C87.6258 126.925 87.0508 127.092 86.6508 127.425C86.2674 127.758 86.0758 128.325 86.0758 129.125C86.0758 129.925 86.2591 130.508 86.6258 130.875C86.9924 131.225 87.5174 131.4 88.2008 131.4ZM104.546 143.925V124.6H107.121L107.646 125.925C107.962 125.675 108.329 125.433 108.746 125.2C109.162 124.967 109.612 124.783 110.096 124.65C110.579 124.5 111.079 124.425 111.596 124.425C112.446 124.425 113.171 124.592 113.771 124.925C114.387 125.258 114.887 125.733 115.271 126.35C115.654 126.95 115.929 127.675 116.096 128.525C116.279 129.358 116.371 130.283 116.371 131.3C116.371 132.767 116.212 134.017 115.896 135.05C115.596 136.067 115.096 136.842 114.396 137.375C113.712 137.908 112.779 138.175 111.596 138.175C110.929 138.175 110.246 138.083 109.546 137.9C108.862 137.717 108.229 137.475 107.646 137.175V143.925H104.546ZM110.621 135.625C111.104 135.625 111.546 135.5 111.946 135.25C112.346 134.983 112.662 134.542 112.896 133.925C113.146 133.308 113.271 132.433 113.271 131.3C113.271 130.217 113.154 129.35 112.921 128.7C112.687 128.05 112.371 127.592 111.971 127.325C111.587 127.058 111.146 126.925 110.646 126.925C110.029 126.925 109.471 127.025 108.971 127.225C108.471 127.408 108.029 127.6 107.646 127.8V134.8C108.079 135.05 108.554 135.25 109.071 135.4C109.587 135.55 110.104 135.625 110.621 135.625ZM119.121 138V124.6H121.521L122.221 126.75C122.754 126.1 123.346 125.55 123.996 125.1C124.646 124.65 125.421 124.425 126.321 124.425C126.504 124.425 126.696 124.442 126.896 124.475C127.096 124.492 127.279 124.525 127.446 124.575V127.725C127.213 127.692 126.963 127.667 126.696 127.65C126.429 127.633 126.171 127.625 125.921 127.625C125.404 127.625 124.929 127.683 124.496 127.8C124.079 127.917 123.688 128.1 123.321 128.35C122.954 128.583 122.588 128.883 122.221 129.25V138H119.121ZM135.07 138.125C133.62 138.125 132.461 137.925 131.595 137.525C130.745 137.125 130.128 136.433 129.745 135.45C129.361 134.45 129.17 133.067 129.17 131.3C129.17 129.5 129.353 128.108 129.72 127.125C130.086 126.125 130.695 125.425 131.545 125.025C132.395 124.625 133.545 124.425 134.995 124.425C136.278 124.425 137.303 124.558 138.07 124.825C138.853 125.075 139.42 125.533 139.77 126.2C140.136 126.85 140.32 127.775 140.32 128.975C140.32 129.825 140.153 130.508 139.82 131.025C139.486 131.525 139.003 131.883 138.37 132.1C137.753 132.317 137.02 132.425 136.17 132.425H132.245C132.278 133.258 132.386 133.925 132.57 134.425C132.77 134.908 133.12 135.258 133.62 135.475C134.136 135.692 134.886 135.8 135.87 135.8H139.92V137.625C139.236 137.758 138.511 137.875 137.745 137.975C136.995 138.075 136.103 138.125 135.07 138.125ZM132.22 130.55H135.87C136.453 130.55 136.878 130.442 137.145 130.225C137.428 129.992 137.57 129.575 137.57 128.975C137.57 128.392 137.486 127.933 137.32 127.6C137.153 127.267 136.878 127.033 136.495 126.9C136.111 126.75 135.611 126.675 134.995 126.675C134.295 126.675 133.745 126.783 133.345 127C132.945 127.217 132.653 127.608 132.47 128.175C132.303 128.725 132.22 129.517 132.22 130.55ZM143.071 143.925V124.6H145.646L146.171 125.925C146.488 125.675 146.854 125.433 147.271 125.2C147.688 124.967 148.138 124.783 148.621 124.65C149.104 124.5 149.604 124.425 150.121 124.425C150.971 124.425 151.696 124.592 152.296 124.925C152.913 125.258 153.413 125.733 153.796 126.35C154.179 126.95 154.454 127.675 154.621 128.525C154.804 129.358 154.896 130.283 154.896 131.3C154.896 132.767 154.738 134.017 154.421 135.05C154.121 136.067 153.621 136.842 152.921 137.375C152.238 137.908 151.304 138.175 150.121 138.175C149.454 138.175 148.771 138.083 148.071 137.9C147.388 137.717 146.754 137.475 146.171 137.175V143.925H143.071ZM149.146 135.625C149.629 135.625 150.071 135.5 150.471 135.25C150.871 134.983 151.188 134.542 151.421 133.925C151.671 133.308 151.796 132.433 151.796 131.3C151.796 130.217 151.679 129.35 151.446 128.7C151.213 128.05 150.896 127.592 150.496 127.325C150.113 127.058 149.671 126.925 149.171 126.925C148.554 126.925 147.996 127.025 147.496 127.225C146.996 127.408 146.554 127.6 146.171 127.8V134.8C146.604 135.05 147.079 135.25 147.596 135.4C148.113 135.55 148.629 135.625 149.146 135.625ZM160.421 138.15C159.421 138.15 158.605 137.85 157.971 137.25C157.338 136.65 157.021 135.825 157.021 134.775V133.65C157.021 132.617 157.371 131.775 158.071 131.125C158.788 130.475 159.88 130.15 161.346 130.15H165.171V128.975C165.171 128.508 165.088 128.117 164.921 127.8C164.755 127.483 164.455 127.25 164.021 127.1C163.588 126.933 162.93 126.85 162.046 126.85H157.996V125.05C158.613 124.883 159.338 124.742 160.171 124.625C161.005 124.492 161.996 124.425 163.146 124.425C164.246 124.408 165.18 124.542 165.946 124.825C166.713 125.092 167.288 125.542 167.671 126.175C168.071 126.808 168.271 127.675 168.271 128.775V138H165.846L165.321 136.55C165.205 136.65 164.996 136.783 164.696 136.95C164.396 137.117 164.021 137.3 163.571 137.5C163.121 137.683 162.621 137.842 162.071 137.975C161.538 138.092 160.988 138.15 160.421 138.15ZM161.921 135.975C162.138 135.975 162.38 135.95 162.646 135.9C162.93 135.833 163.213 135.767 163.496 135.7C163.78 135.617 164.038 135.542 164.271 135.475C164.521 135.392 164.721 135.317 164.871 135.25C165.038 135.183 165.138 135.142 165.171 135.125V131.625L162.271 131.775C161.505 131.842 160.946 132.042 160.596 132.375C160.263 132.708 160.096 133.15 160.096 133.7V134.25C160.096 134.667 160.18 135.008 160.346 135.275C160.53 135.525 160.755 135.7 161.021 135.8C161.305 135.9 161.605 135.958 161.921 135.975ZM171.343 138V124.6H173.743L174.443 126.75C174.976 126.1 175.568 125.55 176.218 125.1C176.868 124.65 177.643 124.425 178.543 124.425C178.726 124.425 178.918 124.442 179.118 124.475C179.318 124.492 179.501 124.525 179.668 124.575V127.725C179.434 127.692 179.184 127.667 178.918 127.65C178.651 127.633 178.393 127.625 178.143 127.625C177.626 127.625 177.151 127.683 176.718 127.8C176.301 127.917 175.909 128.1 175.543 128.35C175.176 128.583 174.809 128.883 174.443 129.25V138H171.343ZM187.291 138.125C185.841 138.125 184.683 137.925 183.816 137.525C182.966 137.125 182.35 136.433 181.966 135.45C181.583 134.45 181.391 133.067 181.391 131.3C181.391 129.5 181.575 128.108 181.941 127.125C182.308 126.125 182.916 125.425 183.766 125.025C184.616 124.625 185.766 124.425 187.216 124.425C188.5 124.425 189.525 124.558 190.291 124.825C191.075 125.075 191.641 125.533 191.991 126.2C192.358 126.85 192.541 127.775 192.541 128.975C192.541 129.825 192.375 130.508 192.041 131.025C191.708 131.525 191.225 131.883 190.591 132.1C189.975 132.317 189.241 132.425 188.391 132.425H184.466C184.5 133.258 184.608 133.925 184.791 134.425C184.991 134.908 185.341 135.258 185.841 135.475C186.358 135.692 187.108 135.8 188.091 135.8H192.141V137.625C191.458 137.758 190.733 137.875 189.966 137.975C189.216 138.075 188.325 138.125 187.291 138.125ZM184.441 130.55H188.091C188.675 130.55 189.1 130.442 189.366 130.225C189.65 129.992 189.791 129.575 189.791 128.975C189.791 128.392 189.708 127.933 189.541 127.6C189.375 127.267 189.1 127.033 188.716 126.9C188.333 126.75 187.833 126.675 187.216 126.675C186.516 126.675 185.966 126.783 185.566 127C185.166 127.217 184.875 127.608 184.691 128.175C184.525 128.725 184.441 129.517 184.441 130.55ZM199.668 138.15C198.618 138.15 197.734 137.925 197.018 137.475C196.301 137.008 195.759 136.283 195.393 135.3C195.043 134.3 194.868 133.008 194.868 131.425C194.868 129.758 195.026 128.417 195.343 127.4C195.659 126.367 196.184 125.617 196.918 125.15C197.668 124.667 198.668 124.425 199.918 124.425C200.584 124.425 201.243 124.492 201.893 124.625C202.543 124.758 203.109 124.917 203.593 125.1V118.925H206.693V138H204.118L203.593 136.7C203.326 136.95 202.968 137.183 202.518 137.4C202.084 137.617 201.618 137.8 201.118 137.95C200.634 138.083 200.151 138.15 199.668 138.15ZM200.718 135.65C201.318 135.65 201.859 135.558 202.343 135.375C202.826 135.175 203.243 134.975 203.593 134.775V127.325C203.176 127.175 202.751 127.042 202.318 126.925C201.884 126.808 201.409 126.75 200.893 126.75C200.193 126.75 199.626 126.883 199.193 127.15C198.759 127.4 198.443 127.85 198.243 128.5C198.059 129.15 197.968 130.075 197.968 131.275C197.968 132.392 198.059 133.275 198.243 133.925C198.426 134.558 198.718 135.008 199.118 135.275C199.534 135.525 200.068 135.65 200.718 135.65Z" fill="#FDE5D4"/>
<defs>
<linearGradient id="paint0_linear_813_1236" x1="125" y1="0" x2="125" y2="250" gradientUnits="userSpaceOnUse">
<stop stop-color="#C62D18"/>
<stop offset="1" stop-color="#C62D18" stop-opacity="0.56"/>
</linearGradient>
</defs>
</svg>
