<svg width="33" height="27" viewBox="0 0 33 27" fill="none" xmlns="http://www.w3.org/2000/svg">
<path d="M11.3438 5.19231V1.03846C11.3438 0.763044 11.4524 0.498908 11.6458 0.304158C11.8392 0.109409 12.1015 0 12.375 0C12.6485 0 12.9108 0.109409 13.1042 0.304158C13.2976 0.498908 13.4063 0.763044 13.4063 1.03846V5.19231C13.4063 5.46773 13.2976 5.73186 13.1042 5.92661C12.9108 6.12136 12.6485 6.23077 12.375 6.23077C12.1015 6.23077 11.8392 6.12136 11.6458 5.92661C11.4524 5.73186 11.3438 5.46773 11.3438 5.19231ZM16.5 6.23077C16.7735 6.23077 17.0358 6.12136 17.2292 5.92661C17.4226 5.73186 17.5312 5.46773 17.5312 5.19231V1.03846C17.5312 0.763044 17.4226 0.498908 17.2292 0.304158C17.0358 0.109409 16.7735 0 16.5 0C16.2265 0 15.9642 0.109409 15.7708 0.304158C15.5774 0.498908 15.4688 0.763044 15.4688 1.03846V5.19231C15.4688 5.46773 15.5774 5.73186 15.7708 5.92661C15.9642 6.12136 16.2265 6.23077 16.5 6.23077ZM20.625 6.23077C20.8985 6.23077 21.1608 6.12136 21.3542 5.92661C21.5476 5.73186 21.6562 5.46773 21.6562 5.19231V1.03846C21.6562 0.763044 21.5476 0.498908 21.3542 0.304158C21.1608 0.109409 20.8985 0 20.625 0C20.3515 0 20.0892 0.109409 19.8958 0.304158C19.7024 0.498908 19.5938 0.763044 19.5938 1.03846V5.19231C19.5938 5.46773 19.7024 5.73186 19.8958 5.92661C20.0892 6.12136 20.3515 6.23077 20.625 6.23077ZM32.5875 12.2538L28.875 15.0577V22.8462C28.875 23.9478 28.4404 25.0044 27.6668 25.7834C26.8932 26.5624 25.844 27 24.75 27H8.25C7.15598 27 6.10677 26.5624 5.33319 25.7834C4.5596 25.0044 4.125 23.9478 4.125 22.8462V15.0577L0.412504 12.2538C0.193701 12.0886 0.0490482 11.8426 0.0103688 11.5699C-0.0283106 11.2973 0.0421515 11.0203 0.206254 10.8C0.370357 10.5797 0.614658 10.434 0.885413 10.3951C1.15617 10.3561 1.4312 10.4271 1.65 10.5923L4.125 12.4615V10.3846C4.125 9.83378 4.3423 9.30551 4.7291 8.91601C5.11589 8.52651 5.64049 8.30769 6.1875 8.30769H26.8125C27.3595 8.30769 27.8841 8.52651 28.2709 8.91601C28.6577 9.30551 28.875 9.83378 28.875 10.3846V12.4615L31.35 10.5923C31.5688 10.4271 31.8438 10.3561 32.1146 10.3951C32.3853 10.434 32.6296 10.5797 32.7937 10.8C32.9579 11.0203 33.0283 11.2973 32.9896 11.5699C32.951 11.8426 32.8063 12.0886 32.5875 12.2538ZM26.8125 10.3846H6.1875V22.8462C6.1875 23.397 6.4048 23.9253 6.79159 24.3148C7.17839 24.7043 7.70299 24.9231 8.25 24.9231H24.75C25.297 24.9231 25.8216 24.7043 26.2084 24.3148C26.5952 23.9253 26.8125 23.397 26.8125 22.8462V10.3846Z" fill="#FDE5D4"/>
</svg>
