<svg width="31" height="28" viewBox="0 0 31 28" fill="none" xmlns="http://www.w3.org/2000/svg">
<g clip-path="url(#clip0_179_248)">
<path d="M27.4155 5.85094L29.7793 20.5807C29.9865 21.8933 29.489 23.2241 28.3902 24.1353C26.6487 25.5574 22.9996 27.0704 15.328 27.0704C7.13817 27.0704 3.57217 25.3021 2.03752 23.7161C1.12524 22.7863 0.814257 21.5286 1.08389 20.3251L4.29754 5.85059" fill="#F6BF54"/>
<path d="M26.5016 25.3021C26.5016 25.3021 23.5369 9.0594 22.8111 9.09576C22.0233 9.13213 22.9356 26.3231 23.3086 26.5053C23.6821 26.6878 26.5016 25.3021 26.5016 25.3021Z" fill="#E5AA48"/>
<path d="M25.6928 24.8465L24.4902 17.1533H24.9257L26.3355 24.4636L25.6928 24.8465Z" fill="#ECAA43"/>
<path d="M4.29688 25.3025C4.29688 25.3025 8.83758 8.25729 9.56335 8.294C10.3512 8.33037 7.86287 26.3235 7.48985 26.5057C7.11642 26.6882 4.29688 25.3025 4.29688 25.3025Z" fill="#E5AA48"/>
<path d="M23.1436 25.5572L22.5009 15.3118L23.3301 15.8041L23.7862 25.4295L23.1436 25.5572ZM8.13234 13.817L5.39551 24.755L4.50391 24.4634L7.78 12.9785L8.13234 13.817Z" fill="#ECAA43"/>
<path d="M12.3008 26.8331C12.3008 26.8331 14.5815 9.7334 15.8254 9.7334C17.0487 9.7334 18.2926 26.031 18.4584 26.7786C18.5622 27.1248 12.3008 26.8331 12.3008 26.8331Z" fill="#E5AA48"/>
<path d="M18.4382 26.5051L16.966 12.9785L16.1989 13.2338L17.3183 26.5051H18.4382ZM9.27366 14.6195C9.27366 14.6195 7.92592 25.5939 7.59426 26.1771L6.64062 25.8855L8.92132 14.4551L9.27366 14.6195ZM12.3008 26.8334L14.2705 14.3093H15.1001L13.2962 26.8698L12.3008 26.8334Z" fill="#ECAA43"/>
<path d="M2.80469 12.8873C2.80469 12.8873 6.26729 11.5383 8.73449 13.3065C11.2017 15.0747 12.5912 15.166 15.9293 14.2362C19.2674 13.3065 22.5018 15.6583 23.9115 16.9706C25.653 18.5566 29.7793 20.0696 29.0949 15.8768C28.4109 11.6841 27.3741 6.16016 27.3741 6.16016H4.29758L2.80469 12.8873Z" fill="#8E5C36"/>
<path d="M15.4101 28.0003C8.42291 28.0003 3.67501 26.7607 1.3112 24.318C0.212414 23.1879 -0.223046 21.6564 0.108617 20.1434L3.32227 5.66895L5.39577 6.03364L2.18212 20.5081C1.97493 21.4561 2.24456 22.4407 2.90789 23.1148C4.25563 24.5006 7.51104 26.1412 15.3895 26.1412C22.8742 26.1412 26.233 24.6827 27.7259 23.4614C28.5551 22.7687 28.9698 21.7477 28.804 20.7085L26.482 5.97874L28.5761 5.72349L30.9399 20.4532C31.2096 22.0938 30.5665 23.7166 29.2192 24.8103C26.6271 26.9251 21.983 28.0003 15.4101 28.0003Z" fill="#4C2F1B"/>
<path d="M4.50391 8.89527C4.50391 8.89527 8.25681 10.9191 16.3846 10.7184C22.5009 10.5726 24.844 10.0439 25.6525 9.80684C25.8601 9.75229 26.0673 9.82502 26.1293 10.0075L27.8087 14.3098L27.145 7.98407L4.71109 7.58301L4.50391 8.89527Z" fill="#935D36"/>
<path d="M4.10919 10.8635C4.10919 10.8635 8.17308 10.1344 10.3086 11.8845C13.8126 14.7283 14.5177 11.6111 18.3533 12.103C24.5734 12.887 28.036 18.9578 28.2018 16.0227C28.2018 16.0227 29.5285 17.1528 29.1968 17.9186C28.8652 18.6843 28.6369 18.8119 27.4343 18.5749C26.2524 18.3196 20.1154 14.4185 18.4774 14.4912C16.8397 14.5639 12.9623 14.6006 11.7804 14.4912C10.5778 14.3818 3.94336 12.3765 3.94336 12.3765L4.10919 10.8635Z" fill="#824C28"/>
<path d="M27.5388 19.5046C25.9007 19.5046 24.0973 18.4472 23.1639 17.5906C22.293 16.7885 19.2452 14.2727 16.2598 15.1111C12.8803 16.0591 10.9933 16.114 8.06997 14.0174C6.12094 12.6321 3.25964 13.7258 3.21828 13.7258L1.37305 14.4367L3.42587 5.23047H28.2646L28.4097 5.99622C28.4304 6.05112 29.4878 11.5747 30.1511 15.7311C30.5246 18.0098 29.5912 18.9032 28.7414 19.2675C28.389 19.4315 27.9742 19.5046 27.5388 19.5046ZM17.5248 13.0877C20.7802 13.0877 23.5377 15.257 24.6986 16.3143C25.7353 17.2622 27.3316 17.8277 27.8498 17.6088C28.0776 17.5175 28.2439 16.9706 28.0776 16.0045C27.5595 12.7961 26.813 8.76692 26.4814 7.10814H5.16731L4.17232 11.5929C5.62385 11.3743 7.69695 11.3558 9.41812 12.5957C11.533 14.1087 12.5073 14.2363 15.6382 13.3615C16.2805 13.1604 16.9024 13.0877 17.5248 13.0877Z" fill="#4C2F1B"/>
<path d="M15.949 8.91359C12.4657 8.91359 4.33789 8.64015 4.33789 6.16107C4.33789 3.68164 12.445 3.4082 15.949 3.4082C19.4529 3.4082 27.5596 3.68164 27.5596 6.16107C27.5596 8.6398 19.4322 8.91359 15.949 8.91359Z" fill="#8E5C36"/>
<path d="M15.9497 4.35558C21.7757 4.35558 26.503 5.17588 26.503 6.17871C26.503 7.18118 21.7757 8.00148 15.9497 8.00148C10.1237 8.00148 5.39611 7.18118 5.39611 6.17871C5.39652 5.17588 10.1237 4.35558 15.9497 4.35558ZM15.9497 2.49609C13.0057 2.49609 10.2064 2.6968 8.07091 3.06114C6.64046 3.31639 3.28125 3.88144 3.28125 6.17871C3.28125 8.47562 6.64005 9.04067 8.07091 9.29592C10.1858 9.66062 12.9846 9.86097 15.9291 9.86097C18.8735 9.86097 21.6724 9.66026 23.7872 9.29592C25.2177 9.04067 28.5765 8.47562 28.5765 6.17871C28.5765 3.8818 25.2383 3.29821 23.8079 3.06114C21.693 2.69645 18.8942 2.49609 15.9497 2.49609Z" fill="#4C2F1B"/>
<path d="M19.7852 18.6477C19.7852 18.8188 20.1659 18.9578 20.6354 18.9578C21.1049 18.9578 21.4856 18.8192 21.4856 18.6477C21.4856 18.4766 21.1049 18.3379 20.6354 18.3379C20.1659 18.3379 19.7852 18.4769 19.7852 18.6477Z" fill="#F8D089"/>
<path d="M26.1094 20.3069C26.1094 20.478 26.4901 20.6167 26.9596 20.6167C27.4291 20.6167 27.8099 20.478 27.8099 20.3069C27.8099 20.1357 27.4291 19.9971 26.9596 19.9971C26.4901 19.9971 26.1094 20.1357 26.1094 20.3069Z" fill="#F8D089"/>
<path d="M10.5996 18.6478C10.5996 18.7586 10.7618 18.861 11.0249 18.9162C11.2881 18.9715 11.612 18.9715 11.8752 18.9162C12.1383 18.861 12.3001 18.7586 12.3001 18.6478C12.3001 18.5369 12.1379 18.4349 11.8752 18.3793C11.612 18.3241 11.2881 18.3241 11.0249 18.3793C10.7618 18.4349 10.5996 18.5373 10.5996 18.6478Z" fill="#F8D089"/>
<path d="M18.9355 16.3875C18.9355 16.5083 19.2234 16.606 19.5786 16.606C19.9334 16.606 20.2212 16.508 20.2212 16.3875C20.2212 16.2666 19.9334 16.1689 19.5786 16.1689C19.2234 16.1686 18.9355 16.2666 18.9355 16.3875Z" fill="#F3B13E"/>
<path d="M18.168 17.4999C18.168 17.5905 18.3812 17.6639 18.6448 17.6639C18.9083 17.6639 19.1216 17.5905 19.1216 17.4999C19.1216 17.4094 18.9079 17.3359 18.6448 17.3359C18.3816 17.3359 18.168 17.4094 18.168 17.4999Z" fill="#F3B13E"/>
<path d="M27.8086 21.2187C27.8086 21.3092 28.0223 21.3827 28.2854 21.3827C28.549 21.3827 28.7622 21.3092 28.7622 21.2187C28.7622 21.1281 28.5486 21.0547 28.2854 21.0547C28.0223 21.0543 27.8086 21.1281 27.8086 21.2187Z" fill="#F3B13E"/>
<path d="M11.6777 16.9896C11.6777 17.0809 11.8123 17.165 12.0305 17.2107C12.2486 17.2563 12.5174 17.2563 12.7356 17.2107C12.9537 17.165 13.0879 17.0809 13.0879 16.9896C13.0879 16.8485 12.7725 16.7344 12.3828 16.7344C11.9932 16.7344 11.6777 16.8488 11.6777 16.9896Z" fill="#F3B13E"/>
<path d="M5.16797 15.3117C5.16797 15.4829 5.35367 15.6219 5.58275 15.6219C5.81183 15.6219 5.99753 15.4832 5.99753 15.3117C5.99753 15.1406 5.81183 15.002 5.58275 15.002C5.35367 15.002 5.16797 15.141 5.16797 15.3117Z" fill="#F8D089"/>
<path d="M10.4336 20.9998C10.4336 21.1206 10.6935 21.2183 11.0142 21.2183C11.3349 21.2183 11.5948 21.1203 11.5948 20.9998C11.5948 20.8793 11.3349 20.7812 11.0142 20.7812C10.6935 20.7812 10.4336 20.8789 10.4336 20.9998Z" fill="#F8D089"/>
<path d="M9.85352 23.406C9.85352 23.5269 10.1134 23.6249 10.4341 23.6249C10.7548 23.6249 11.0147 23.5269 11.0147 23.406C11.0147 23.2852 10.7548 23.1875 10.4341 23.1875C10.1134 23.1875 9.85352 23.2852 9.85352 23.406Z" fill="#F8D089"/>
<path d="M19.2461 21.6382C19.2461 21.7491 19.4877 21.8386 19.7849 21.8386C20.0826 21.8386 20.3242 21.7487 20.3242 21.6382C20.3242 21.5273 20.0826 21.4375 19.7849 21.4375C19.4873 21.4375 19.2461 21.5273 19.2461 21.6382Z" fill="#F8D089"/>
<path d="M8.90039 19.7417C8.90039 19.8526 9.14204 19.9421 9.43924 19.9421C9.73685 19.9421 9.9785 19.8522 9.9785 19.7417C9.9785 19.6309 9.73725 19.541 9.43924 19.541C9.14164 19.541 8.90039 19.6309 8.90039 19.7417Z" fill="#F3B13E"/>
<path d="M3.09375 19.5597C3.09375 19.6314 3.19674 19.6977 3.36338 19.7333C3.53043 19.769 3.73559 19.769 3.90223 19.7333C4.06887 19.6973 4.17186 19.6314 4.17186 19.5597C4.17186 19.4881 4.06887 19.4218 3.90223 19.3861C3.73559 19.3505 3.53002 19.3505 3.36338 19.3861C3.19633 19.4221 3.09375 19.4881 3.09375 19.5597Z" fill="#F3B13E"/>
<path d="M3.63281 21.0002C3.63281 21.0718 3.7358 21.1381 3.90244 21.1738C4.06908 21.2098 4.27465 21.2098 4.4417 21.1738C4.60834 21.1381 4.71133 21.0718 4.71133 21.0002C4.71133 20.9285 4.60834 20.8622 4.4417 20.8265C4.27465 20.7909 4.06949 20.7909 3.90244 20.8265C3.7358 20.8622 3.63281 20.9285 3.63281 21.0002Z" fill="#F3B13E"/>
<path d="M4.17188 18.2834C4.17188 18.355 4.25094 18.4213 4.37906 18.457C4.50759 18.4926 4.66572 18.4926 4.79384 18.457C4.92197 18.421 5.00103 18.355 5.00103 18.2834C5.00103 18.2117 4.92197 18.1454 4.79384 18.1097C4.66572 18.0741 4.50759 18.0741 4.37906 18.1097C4.25053 18.1454 4.17188 18.2117 4.17188 18.2834Z" fill="#F8D089"/>
<path d="M3.75781 22.3127C3.75781 22.3843 3.83688 22.4503 3.96541 22.4863C4.09353 22.5219 4.25166 22.5219 4.38019 22.4863C4.50872 22.4503 4.58778 22.3843 4.58778 22.3127C4.58778 22.241 4.50872 22.1747 4.38019 22.139C4.25206 22.1034 4.09394 22.1034 3.96541 22.139C3.83688 22.175 3.75781 22.241 3.75781 22.3127Z" fill="#F8D089"/>
<path d="M4.73242 16.9351C4.73242 17.046 4.88082 17.1354 5.06409 17.1354C5.24735 17.1354 5.39575 17.0456 5.39575 16.9351C5.39575 16.8242 5.24735 16.7344 5.06409 16.7344C4.88122 16.7344 4.73242 16.8242 4.73242 16.9351Z" fill="#F3B13E"/>
<path d="M3.5918 15.6037C3.5918 15.6753 3.65505 15.7416 3.75763 15.7773C3.86061 15.8129 3.98671 15.8129 4.08929 15.7773C4.19187 15.7416 4.25512 15.6753 4.25512 15.6037C4.25512 15.4928 4.10673 15.4033 3.92346 15.4033C3.74019 15.4033 3.5918 15.4928 3.5918 15.6037Z" fill="#F3B13E"/>
<path d="M11.4707 22.8957C11.4707 23.0065 11.7119 23.0964 12.0096 23.0964C12.3072 23.0964 12.5484 23.0065 12.5484 22.8957C12.5484 22.7848 12.3072 22.6953 12.0096 22.6953C11.7119 22.6953 11.4707 22.7852 11.4707 22.8957Z" fill="#F3B13E"/>
<path d="M20.8223 20.5804C20.8223 20.6609 20.9986 20.7262 21.2164 20.7262C21.4337 20.7262 21.6101 20.6609 21.6101 20.5804C21.6101 20.4998 21.4337 20.4346 21.2164 20.4346C20.9986 20.4346 20.8223 20.4998 20.8223 20.5804Z" fill="#F3B13E"/>
<path d="M26.3574 21.9837C26.3574 22.0643 26.5338 22.1295 26.7515 22.1295C26.9689 22.1295 27.1456 22.0643 27.1456 21.9837C27.1456 21.9031 26.9693 21.8379 26.7515 21.8379C26.5342 21.8379 26.3574 21.9035 26.3574 21.9837Z" fill="#F3B13E"/>
<path d="M20.8223 23.6429C20.8223 23.7234 20.9986 23.7887 21.2164 23.7887C21.4337 23.7887 21.6101 23.7234 21.6101 23.6429C21.6101 23.5623 21.4337 23.4971 21.2164 23.4971C20.9986 23.4971 20.8223 23.5623 20.8223 23.6429Z" fill="#F3B13E"/>
<path d="M15.9701 5.50391C11.761 5.50391 11.7817 6.19658 12.0513 6.70709C12.4661 7.5092 16.7992 8.11062 19.7643 6.88926C20.6559 6.52492 20.1791 5.50391 15.9701 5.50391Z" fill="#864D27"/>
<path d="M19.1618 5.75943C19.1618 6.90806 12.8379 6.90806 12.8379 5.75943C12.8379 4.22827 14.2683 3.44434 16.0102 3.44434C17.752 3.44434 19.1618 4.22827 19.1618 5.75943Z" fill="#EA5150"/>
<path d="M15.9896 7.18184C15.0984 7.18184 14.2688 7.09094 13.6468 6.94477C12.4443 6.65316 12.1953 6.14265 12.1953 5.75978C12.1953 4.04609 13.7296 2.89746 16.0103 2.89746C18.2703 2.89746 19.8045 4.04574 19.8045 5.75978C19.8045 7.05422 17.1508 7.18184 15.9896 7.18184ZM13.481 5.68705C13.7089 5.83286 14.5798 6.06993 16.0103 6.06993C17.4407 6.06993 18.3116 5.83286 18.5399 5.68705C18.4775 4.13736 16.6115 4.00973 16.0309 4.00973C14.8081 4.00973 13.5224 4.44715 13.481 5.68705Z" fill="#4C2F1B"/>
<path d="M16.2402 3.46313C16.2402 3.46313 16.9453 1.07496 19.0809 0.564453L16.2402 3.46313Z" fill="#EA5150"/>
<path d="M16.2398 4.00963C16.1773 4.00963 16.136 4.00963 16.074 3.99145C15.7423 3.91837 15.5351 3.60858 15.6178 3.31696C15.6592 3.20752 16.447 0.61899 18.9146 0.0172226C19.2462 -0.0558593 19.599 0.108486 19.7024 0.418282C19.7851 0.709897 19.5986 1.01969 19.2462 1.11096C17.4837 1.5302 16.8618 3.59039 16.8411 3.60858C16.779 3.84565 16.5094 4.00963 16.2398 4.00963Z" fill="#4C2F1B"/>
<path d="M16.6133 4.77508C16.6133 4.99647 16.8176 5.17614 17.0694 5.17614C17.3212 5.17614 17.5256 4.99682 17.5256 4.77508C17.5256 4.5537 17.3212 4.37402 17.0694 4.37402C16.8176 4.37402 16.6133 4.5537 16.6133 4.77508Z" fill="white"/>
</g>
<defs>
<clipPath id="clip0_179_248">
<rect width="31" height="28" fill="white"/>
</clipPath>
</defs>
</svg>
