<svg width="24" height="28" viewBox="0 0 24 28" fill="none" xmlns="http://www.w3.org/2000/svg">
<path d="M17.617 7.57798V6.0367C17.617 5.89541 17.5021 5.77982 17.3617 5.77982H5.10638C4.96596 5.77982 4.85106 5.89541 4.85106 6.0367V7.57798C4.85106 7.71927 4.96596 7.83486 5.10638 7.83486H17.3617C17.5021 7.83486 17.617 7.71927 17.617 7.57798ZM5.10638 10.4037C4.96596 10.4037 4.85106 10.5193 4.85106 10.6606V12.2018C4.85106 12.3431 4.96596 12.4587 5.10638 12.4587H10.9787C11.1191 12.4587 11.234 12.3431 11.234 12.2018V10.6606C11.234 10.5193 11.1191 10.4037 10.9787 10.4037H5.10638ZM17.1064 14.1284C13.2989 14.1284 10.2128 17.2335 10.2128 21.0642C10.2128 24.895 13.2989 28 17.1064 28C20.9138 28 24 24.895 24 21.0642C24 17.2335 20.9138 14.1284 17.1064 14.1284ZM20.5372 24.5161C19.6213 25.4376 18.4021 25.945 17.1064 25.945C15.8106 25.945 14.5915 25.4376 13.6755 24.5161C12.7596 23.5945 12.2553 22.3679 12.2553 21.0642C12.2553 19.7605 12.7596 18.5339 13.6755 17.6124C14.5915 16.6908 15.8106 16.1835 17.1064 16.1835C18.4021 16.1835 19.6213 16.6908 20.5372 17.6124C21.4532 18.5339 21.9574 19.7605 21.9574 21.0642C21.9574 22.3679 21.4532 23.5945 20.5372 24.5161ZM19.9468 18.6239H18.533C18.45 18.6239 18.3734 18.6624 18.3255 18.7298L16.2989 21.5491L15.5617 20.5248C15.5381 20.4917 15.5069 20.4648 15.4708 20.4463C15.4347 20.4279 15.3947 20.4185 15.3543 20.4188H13.9468C13.7394 20.4188 13.6181 20.6564 13.7394 20.8266L16.0947 24.105C16.1968 24.2463 16.4043 24.2463 16.5064 24.105L20.1511 19.0317C20.2755 18.8615 20.1543 18.6239 19.9468 18.6239ZM9.70213 24.9174H2.29787V2.31193H20.1702V13.3578C20.1702 13.4991 20.2851 13.6147 20.4255 13.6147H22.2128C22.3532 13.6147 22.4681 13.4991 22.4681 13.3578V1.02752C22.4681 0.459174 22.0117 0 21.4468 0H1.02128C0.456383 0 0 0.459174 0 1.02752V26.2018C0 26.7702 0.456383 27.2294 1.02128 27.2294H9.70213C9.84255 27.2294 9.95745 27.1138 9.95745 26.9725V25.1743C9.95745 25.033 9.84255 24.9174 9.70213 24.9174Z" fill="#FDE5D4"/>
</svg>
