<svg width="130" height="130" viewBox="0 0 130 130" fill="none" xmlns="http://www.w3.org/2000/svg">
<path d="M28.9035 5.65686C25.7793 2.53266 20.7139 2.53266 17.5898 5.65685L5.65685 17.5898C2.53266 20.7139 2.53266 25.7793 5.65685 28.9035L11.8706 35.1172L35.6547 59.3022C38.7344 62.4338 38.7134 67.4626 35.6076 70.5684L11.8706 94.3054L5.83832 100.086C2.6241 103.167 2.54282 108.278 5.65748 111.459L17.5904 123.646C20.7046 126.826 25.8158 126.853 28.9633 123.706L35.1172 117.552L59.2543 93.4149C62.397 90.2723 67.4988 90.2936 70.6151 93.4624L94.3054 117.552L100.027 123.523C103.13 126.761 108.289 126.815 111.46 123.644L123.644 111.46C126.815 108.289 126.761 103.13 123.523 100.027L117.552 94.3054L93.4624 70.6151C90.2936 67.4988 90.2723 62.397 93.4149 59.2543L117.552 35.1172L123.706 28.9633C126.853 25.8159 126.826 20.7046 123.646 17.5904L111.459 5.65748C108.278 2.54282 103.167 2.6241 100.086 5.83832L94.3054 11.8706L70.5684 35.6076C67.4626 38.7134 62.4337 38.7344 59.3022 35.6547L35.1172 11.8706L28.9035 5.65686Z" fill="#1C1C1C"/>
</svg>
