<svg width="38" height="30" viewBox="0 0 38 30" fill="none" xmlns="http://www.w3.org/2000/svg">
<g clip-path="url(#clip0_179_202)">
<path d="M6.08344 6.67578C6.08344 6.67578 21.3712 16.3992 19.5506 24.3608C19.5506 24.3608 5.62289 19.5508 6.08344 6.67578Z" fill="#359A60"/>
<path d="M20.1708 25.543L19.2505 25.232C19.1104 25.1904 4.72254 20.0488 5.18268 6.65537L5.24279 5.10059L6.5233 5.9089C7.16376 6.3238 22.3517 16.0682 20.3706 24.5684L20.1708 25.543ZM6.98385 8.37594C7.62432 17.3327 15.8886 21.79 18.8102 23.0755C18.8903 17.8305 11.3461 11.4241 6.98385 8.37594Z" fill="#4C2F1B"/>
<path d="M1.10156 9.55762C1.10156 9.55762 4.86351 27.5119 20.9319 27.5119C20.9522 27.5123 16.1697 9.76506 1.10156 9.55762Z" fill="#33AC64"/>
<path d="M20.9309 28.4247C4.3423 28.4247 0.280229 9.95204 0.240018 9.76521L0 8.64551L1.1006 8.66612C16.6487 8.87357 21.7314 27.0976 21.7716 27.2844L22.0916 28.4454L20.9309 28.4247C20.9512 28.4247 20.9309 28.4247 20.9309 28.4247ZM2.26131 10.5323C3.34202 14.3054 7.64411 25.8332 19.7105 26.5586C18.3695 22.8061 13.4269 11.4239 2.26131 10.5323Z" fill="#4C2F1B"/>
<path d="M31.7765 7.83691C31.7765 7.83691 16.9886 18.3484 19.2097 26.2061C19.2097 26.2057 32.8767 20.6703 31.7765 7.83691Z" fill="#359A60"/>
<path d="M18.6488 27.4297L18.3686 26.4758C15.9875 18.0791 30.6551 7.54698 31.2753 7.09086L32.516 6.19922L32.6561 7.75443C33.7965 21.1062 19.6893 26.9942 19.5293 27.0565L18.6488 27.4297ZM30.9553 9.57851C26.773 12.8543 19.5492 19.6545 19.8891 24.9C22.7312 23.4281 30.7753 18.5353 30.9553 9.57851Z" fill="#4C2F1B"/>
<path d="M36.999 9.95215C36.999 9.95215 19.2895 18.473 20.3101 27.3051C20.33 27.3051 35.9382 23.9048 36.999 9.95215Z" fill="#33AC64"/>
<path d="M19.5705 28.4036L19.4503 27.4084C18.3696 18.0166 35.8992 9.47475 36.6392 9.12213L38.0001 8.45898L37.8799 10.0138C36.7793 24.4853 20.6711 28.1549 20.4908 28.1961L19.5705 28.4036ZM35.9191 11.5273C32.0171 13.6211 21.6117 19.8205 21.1715 26.1229C24.4128 25.1278 34.1984 21.3547 35.9191 11.5273Z" fill="#4C2F1B"/>
<path d="M18.7293 2.28063C19.6699 2.28063 20.5901 2.75738 21.1104 3.73191L31.5758 23.5318C32.5562 25.3979 31.2558 27.6992 29.1947 27.6992H8.24391C6.18282 27.6992 4.88199 25.4185 5.86279 23.5318L16.3486 3.73191C16.868 2.75738 17.7883 2.28063 18.7293 2.28063ZM18.7293 0C16.9285 0 15.2873 1.01576 14.4268 2.63282L3.9414 22.4327C3.10113 24.0291 3.12103 25.9159 4.02141 27.4707C4.92179 29.0259 6.50284 29.9588 8.24349 29.9588H29.1943C30.9553 29.9588 32.5359 29.0259 33.4164 27.4707C34.3168 25.9159 34.3371 24.0291 33.4964 22.4327L23.0314 2.63282C22.1708 0.995147 20.5101 0 18.7293 0Z" fill="#4C2F1B"/>
<path d="M14.9071 16.6484C14.827 16.6484 14.7669 16.6484 14.6869 16.6278C13.9068 16.5243 13.4462 15.8191 13.4064 15.7362C13.2663 15.5287 13.3264 15.2384 13.5266 15.1143C13.7264 14.9691 14.0067 15.0314 14.1269 15.2388C14.2069 15.3634 14.4871 15.6743 14.8076 15.7366C15.0277 15.7572 15.2677 15.6743 15.5081 15.4463C15.688 15.2805 15.9683 15.3011 16.1283 15.4879C16.2883 15.6743 16.2684 15.9647 16.0885 16.1304C15.7278 16.4826 15.3274 16.6484 14.9071 16.6484Z" fill="#F9E39E"/>
<path d="M21.0719 3.44166L32.2176 23.4902C33.2581 25.3559 31.9577 27.6988 29.8763 27.6988H7.56491C5.48393 27.6988 4.1831 25.3559 5.2236 23.4902L16.3892 3.46228C17.4301 1.57592 20.0314 1.57592 21.0719 3.44166Z" fill="#FAF7BD"/>
<path d="M10.5851 13.4141L4.06149 23.5107C3.02099 25.3764 4.32182 27.7194 6.4028 27.7194L20.5303 27.6987C15.6678 24.8168 11.7657 15.7153 10.5851 13.4141Z" fill="#3AB26C"/>
<path d="M14.9673 19.1365C14.8873 19.1365 14.8272 19.1365 14.7472 19.1159C13.967 19.0119 13.5065 18.3071 13.4667 18.2242C13.3266 18.0168 13.3867 17.7265 13.5869 17.6023C13.7871 17.4572 14.0673 17.5194 14.1871 17.7269C14.2672 17.8514 14.5474 18.1624 14.8674 18.2247C15.0875 18.2663 15.3275 18.1624 15.568 17.9343C15.7483 17.7685 16.0281 17.7892 16.1885 17.976C16.3486 18.1624 16.3287 18.4527 16.1483 18.6185C15.7881 18.9497 15.3877 19.1365 14.9673 19.1365ZM14.6473 16.6484C14.5673 16.6484 14.5072 16.6484 14.4272 16.6278C13.647 16.5243 13.1864 15.8191 13.1467 15.7362C13.0065 15.5287 13.0666 15.2384 13.2669 15.1143C13.4667 14.9691 13.7469 15.0314 13.8671 15.2388C13.9471 15.3634 14.2274 15.6743 14.5474 15.7366C14.7675 15.7572 15.0075 15.6743 15.248 15.4463C15.4283 15.2805 15.7081 15.3011 15.8685 15.4879C16.0285 15.6743 16.0086 15.9647 15.8283 16.1304C15.4478 16.4826 15.0473 16.6484 14.6473 16.6484Z" fill="#F9E39E"/>
<path d="M18.229 25.8539C11.2054 25.3565 7.28306 17.4155 7.12305 17.0633L8.30365 16.4414C8.34386 16.5243 12.0457 24.0298 18.3289 24.4649L18.229 25.8539Z" fill="#2D9556"/>
<path d="M6.54274 28.4244L5.40234 27.7196C5.52256 27.5328 8.26391 22.889 15.7878 20.8154L16.1277 22.1421C9.10418 24.0912 6.56264 28.3828 6.54274 28.4244Z" fill="#2D9556"/>
<path d="M10.3654 13.7045C10.4255 13.7045 10.5055 13.7461 10.5458 13.808C11.9867 16.4408 15.6085 24.9414 20.5312 27.6988H6.80371C4.60251 27.6988 3.22168 25.3559 4.32228 23.4901L10.2054 13.808C10.2452 13.7457 10.3053 13.7045 10.3654 13.7045ZM10.3654 11.4238C9.52516 11.4238 8.76448 11.8593 8.32466 12.6054L2.461 22.2875V22.3082C1.54072 23.8629 1.50051 25.7497 2.36109 27.3256C3.24157 28.9637 4.94243 29.9794 6.80371 29.9794L20.5308 29.9588H29.2556L21.5713 25.6879C18.0095 23.7182 14.9677 17.6434 13.3269 14.3887C12.987 13.7255 12.7068 13.1448 12.4464 12.6887C12.0261 11.9006 11.2256 11.4238 10.3654 11.4238Z" fill="#4C2F1B"/>
<path d="M27.2735 14.5957C24.2121 20.6495 17.3481 26.7655 16.1074 27.6988H29.8747C31.9561 27.6988 33.2764 25.3559 32.216 23.4902L27.2735 14.5957Z" fill="#3AB26C"/>
<path d="M18.5294 29.5441L18.209 28.2174C26.9135 25.9162 30.2953 18.3695 30.3355 18.2861L31.5364 18.8462C31.3963 19.1778 27.8541 27.0771 18.5294 29.5441Z" fill="#2D9556"/>
<path d="M27.2338 29.0881L25.9533 28.7771C27.2939 22.765 24.8328 16.6902 24.8125 16.6279L26.0333 16.0889C26.1129 16.3586 28.6743 22.64 27.2338 29.0881Z" fill="#2D9556"/>
<path d="M23.3529 16.4199C23.2729 16.4199 23.2128 16.4199 23.1328 16.3993C22.3527 16.2958 21.8921 15.591 21.8523 15.5076C21.7122 15.3006 21.7723 15.0103 21.9725 14.8857C22.1723 14.7406 22.4526 14.8028 22.5728 15.0103C22.6528 15.1348 22.933 15.4458 23.2534 15.5076C23.4736 15.5283 23.7136 15.4454 23.954 15.2173C24.1339 15.0515 24.4142 15.0721 24.5742 15.259C24.7342 15.4458 24.7143 15.7357 24.534 15.9019C24.1733 16.2541 23.7733 16.4199 23.3529 16.4199ZM19.0906 22.225C19.0106 22.225 18.9505 22.225 18.8705 22.2044C18.0899 22.1009 17.6298 21.3961 17.59 21.3132C17.4499 21.1057 17.51 20.8154 17.7102 20.6913C17.9105 20.5461 18.1907 20.6084 18.3105 20.8158C18.3905 20.9404 18.6707 21.2513 18.9907 21.3136C19.2109 21.3342 19.4509 21.2513 19.6913 21.0233C19.8716 20.8575 20.1515 20.8781 20.3115 21.0645C20.4715 21.2513 20.4516 21.5412 20.2717 21.7075C19.8911 22.0592 19.4911 22.225 19.0906 22.225ZM23.413 19.0321C23.333 19.0321 23.2729 19.0321 23.1929 19.0115C22.4128 18.908 21.9522 18.2032 21.9124 18.1203C21.7723 17.9128 21.8324 17.6225 22.0326 17.4984C22.2329 17.3532 22.5131 17.4155 22.6329 17.6229C22.7129 17.7475 22.9931 18.0584 23.3131 18.1207C23.5333 18.1413 23.7733 18.0584 24.0137 17.8304C24.194 17.6646 24.4739 17.6852 24.6343 17.8716C24.7943 18.0584 24.7744 18.3483 24.5941 18.5146C24.2334 18.8457 23.833 19.0321 23.413 19.0321Z" fill="#F9E39E"/>
<path d="M27.2751 15.2176C27.4351 15.2176 27.5955 15.3005 27.6954 15.4457L32.3577 23.4691C33.4384 25.3348 32.0775 27.6778 29.8962 27.6778H16.1294C17.3701 26.8072 24.3538 21.2297 26.8348 15.5075C26.8949 15.3215 27.0753 15.2176 27.2751 15.2176ZM27.2751 12.958C26.2143 12.958 25.2538 13.601 24.8135 14.5961C22.6525 19.5306 16.3292 24.7967 14.8683 25.8331L9.02539 30.0001H29.8763C31.7173 30.0001 33.4181 28.9843 34.2986 27.3672C35.1592 25.7708 35.1389 23.905 34.2186 22.3292L29.5563 14.3058C29.0762 13.4558 28.2157 12.958 27.2751 12.958Z" fill="#4C2F1B"/>
<path d="M17.5694 8.18897C17.4894 8.18897 17.3891 8.18897 17.3095 8.16835C16.5289 8.02318 16.1086 7.31838 16.0489 7.23548C15.9286 7.02847 15.9888 6.73813 16.2089 6.61357C16.4087 6.48902 16.6889 6.55129 16.8091 6.75874C16.8891 6.8833 17.1495 7.21487 17.4695 7.27715C17.6896 7.31881 17.9296 7.23548 18.1701 7.00785C18.35 6.84206 18.6302 6.8833 18.7902 7.07013C18.9502 7.25696 18.9104 7.54687 18.7305 7.71309C18.3496 8.02318 17.9694 8.18897 17.5694 8.18897ZM19.0501 4.93423C18.9701 4.93423 18.8702 4.93423 18.7898 4.91362C18.0096 4.76845 17.5893 4.06364 17.5292 3.98075C17.409 3.7733 17.4691 3.48296 17.6693 3.35884C17.8695 3.23428 18.1497 3.29656 18.2695 3.50401C18.3496 3.62856 18.6099 3.96013 18.9299 4.02241C19.15 4.06407 19.39 3.98118 19.6305 3.75268C19.8108 3.5869 20.0906 3.62813 20.251 3.81496C20.4111 4.00179 20.3713 4.2917 20.1909 4.45749C19.8303 4.76802 19.4502 4.93423 19.0501 4.93423ZM21.151 8.10608C21.071 8.10608 20.9711 8.10608 20.8911 8.08546C20.1109 7.94029 19.6906 7.23548 19.6305 7.15259C19.5103 6.94514 19.5708 6.6548 19.7905 6.53068C19.9907 6.40612 20.2709 6.46883 20.3907 6.67585C20.4708 6.8004 20.7307 7.13197 21.0511 7.19425C21.2712 7.23548 21.5112 7.15259 21.7517 6.92453C21.932 6.75874 22.2118 6.79997 22.3722 6.9868C22.5323 7.17364 22.4925 7.46355 22.3121 7.62976C21.9316 7.94029 21.5515 8.10608 21.151 8.10608ZM20.8708 11.1744C20.1702 11.1744 19.6301 10.6771 19.5704 10.6148C19.39 10.449 19.39 10.1586 19.5505 9.97224C19.7105 9.78541 19.9907 9.78541 20.1706 9.95163C20.2709 10.0551 20.6109 10.2832 20.9309 10.2626C21.151 10.242 21.3512 10.0758 21.5311 9.80646C21.6713 9.59901 21.9515 9.55735 22.1513 9.70252C22.3515 9.84769 22.3917 10.138 22.2516 10.3455C21.9113 10.8433 21.4909 11.1336 21.0109 11.1748H20.8708V11.1744ZM16.2487 10.988C15.9888 10.988 15.7686 10.9257 15.5481 10.8012C14.8475 10.4279 14.6477 9.59858 14.6278 9.51569C14.5677 9.26658 14.7078 9.0179 14.9483 8.95562C15.1883 8.89377 15.4283 9.03852 15.4685 9.28762C15.5087 9.4328 15.6488 9.82664 15.949 9.97182C16.1488 10.0753 16.3892 10.0547 16.6893 9.93015C16.9094 9.84726 17.1698 9.95077 17.2697 10.1788C17.3497 10.4069 17.2498 10.6766 17.0297 10.7801C16.749 10.9468 16.4887 10.988 16.2487 10.988ZM22.7719 13.766C22.1115 13.766 21.6111 13.3515 21.5515 13.2893C21.3711 13.1235 21.3313 12.8331 21.4913 12.6463C21.6514 12.4595 21.9117 12.4182 22.1119 12.5845C22.2118 12.6673 22.5721 12.8954 22.8921 12.8331C23.1122 12.7915 23.2921 12.6257 23.4724 12.3353C23.5926 12.1283 23.8725 12.045 24.0727 12.1902C24.2725 12.3147 24.3529 12.6046 24.2128 12.8121C23.9127 13.3305 23.5122 13.6414 23.0322 13.7243C22.9522 13.7454 22.8722 13.766 22.7719 13.766ZM19.1102 14.2015C19.0302 14.2015 18.9701 14.2015 18.8901 14.1809C18.1095 14.077 17.6494 13.3721 17.6096 13.2893C17.4695 13.0818 17.5296 12.7915 17.7298 12.6673C17.9296 12.5222 18.2099 12.5845 18.3301 12.7919C18.4101 12.9165 18.6903 13.2274 19.0103 13.2897C19.2304 13.3103 19.4705 13.2274 19.7109 12.9993C19.8908 12.8336 20.171 12.8542 20.3311 13.0406C20.4911 13.2274 20.4712 13.5173 20.2913 13.6835C19.9103 14.0357 19.5103 14.2015 19.1102 14.2015ZM18.9498 16.5444C18.8698 16.5444 18.8097 16.5444 18.7297 16.5238C17.9491 16.4199 17.489 15.7151 17.4492 15.6322C17.3091 15.4247 17.3692 15.1344 17.5694 15.0103C17.7696 14.8651 18.0498 14.9274 18.1696 15.1348C18.2496 15.2594 18.5299 15.5703 18.8499 15.6326C19.07 15.6532 19.31 15.5703 19.5505 15.3423C19.7308 15.1765 20.0106 15.1971 20.1706 15.3835C20.3306 15.5703 20.3107 15.8602 20.1308 16.0264C19.7503 16.3786 19.3503 16.5444 18.9498 16.5444ZM19.0099 19.3847C18.9299 19.3847 18.8698 19.3847 18.7898 19.3641C18.0096 19.2606 17.5491 18.5558 17.5093 18.4724C17.3692 18.2654 17.4293 17.9751 17.6295 17.8505C17.8293 17.7054 18.1095 17.7676 18.2298 17.9751C18.3098 18.0996 18.59 18.4106 18.91 18.4724C19.1301 18.4931 19.3701 18.4102 19.6106 18.1821C19.7909 18.0163 20.0707 18.0369 20.2311 18.2238C20.3912 18.4106 20.3713 18.7005 20.1909 18.8663C19.8104 19.2189 19.4303 19.3847 19.0099 19.3847ZM15.1278 13.9941C15.0477 13.9941 14.9876 13.9941 14.9076 13.9734C14.1271 13.8699 13.6669 13.1651 13.6271 13.0818C13.487 12.8748 13.5471 12.5845 13.7473 12.4599C13.9476 12.3147 14.2278 12.377 14.3476 12.5845C14.4276 12.709 14.7078 13.02 15.0278 13.0818C15.248 13.1024 15.488 13.0195 15.7284 12.7915C15.9087 12.6257 16.1886 12.6463 16.349 12.8331C16.509 13.02 16.4891 13.3099 16.3088 13.4757C15.9485 13.8077 15.5481 13.9941 15.1278 13.9941Z" fill="#F9E39E"/>
</g>
<defs>
<clipPath id="clip0_179_202">
<rect width="38" height="30" fill="white"/>
</clipPath>
</defs>
</svg>
